<svg width="156" height="156" viewBox="0 0 156 156" fill="none" xmlns="http://www.w3.org/2000/svg">
<g clip-path="url(#clip0)" filter="url(#filter0_d)">
<path d="M96.8851 69.3558C96.8851 79.7858 88.43 88.2408 78 88.2408C67.5701 88.2408 59.115 79.7858 59.115 69.3558C59.115 58.9258 67.5701 50.4708 78 50.4708C88.43 50.4708 96.8851 58.9258 96.8851 69.3558Z" fill="#929DFE"/>
<path d="M146.649 5.34879C143.197 1.89923 138.609 0 133.731 0H22.2685C17.3906 0 12.8029 1.89923 9.34879 5.35104C5.89923 8.80399 4 13.3906 4 18.2685V36.8464C4 41.7244 5.89923 46.311 9.35104 49.7662C12.804 53.2157 17.3906 55.1138 22.2685 55.1138H23.1944V23.221C23.1944 20.8272 25.1354 18.885 27.5304 18.885H128.471C130.865 18.885 132.807 20.8272 132.807 23.221V55.1138H133.731C138.609 55.1138 143.196 53.2146 146.651 49.7628C150.101 46.311 152 41.7232 152 36.8464V18.2685C152 13.3906 150.101 8.80399 146.649 5.34879Z" fill="#929DFE"/>
<path d="M31.8652 134.376C31.8652 138.017 33.2834 141.438 35.8545 144.006C38.4267 146.582 41.8481 148 45.4896 148H110.511C114.152 148 117.573 146.582 120.141 144.011C122.716 141.438 124.134 138.017 124.134 134.376V27.5569H31.8652V134.376ZM78.0001 41.7989C93.195 41.7989 105.557 54.1608 105.557 69.3558C105.557 84.5508 93.195 96.9127 78.0001 96.9127C62.8051 96.9127 50.4431 84.5508 50.4431 69.3558C50.4431 54.1608 62.8051 41.7989 78.0001 41.7989ZM54.7791 116.107H101.221C103.616 116.107 105.557 118.048 105.557 120.443C105.557 122.837 103.616 124.779 101.221 124.779H54.7791C52.3842 124.779 50.4431 122.837 50.4431 120.443C50.4431 118.048 52.3842 116.107 54.7791 116.107Z" fill="#929DFE"/>
</g>
<defs>
<filter id="filter0_d" x="0" y="0" width="156" height="156" filterUnits="userSpaceOnUse" color-interpolation-filters="sRGB">
<feFlood flood-opacity="0" result="BackgroundImageFix"/>
<feColorMatrix in="SourceAlpha" type="matrix" values="0 0 0 0 0 0 0 0 0 0 0 0 0 0 0 0 0 0 127 0"/>
<feOffset dy="4"/>
<feGaussianBlur stdDeviation="2"/>
<feColorMatrix type="matrix" values="0 0 0 0 0 0 0 0 0 0 0 0 0 0 0 0 0 0 0.25 0"/>
<feBlend mode="normal" in2="BackgroundImageFix" result="effect1_dropShadow"/>
<feBlend mode="normal" in="SourceGraphic" in2="effect1_dropShadow" result="shape"/>
</filter>
<clipPath id="clip0">
<rect width="148" height="148" fill="white" transform="translate(4)"/>
</clipPath>
</defs>
</svg>
