<svg width="13" height="19" viewBox="0 0 13 19" fill="none" xmlns="http://www.w3.org/2000/svg">
<g clip-path="url(#clip0)">
<path d="M6.50017 0.57587C4.58086 0.57587 3.01971 2.1795 3.01971 4.15103C3.01971 6.12256 4.58086 7.72619 6.50017 7.72619C8.41947 7.72619 9.98063 6.12256 9.98063 4.15103C9.98063 2.1795 8.41947 0.57587 6.50017 0.57587ZM6.50017 8.30206C4.2721 8.30206 2.45909 6.43973 2.45909 4.15103C2.45909 1.86234 4.2721 0 6.50017 0C8.72824 0 10.5412 1.86234 10.5412 4.15103C10.5412 6.43973 8.72824 8.30206 6.50017 8.30206Z" fill="#8B8B8B"/>
<path d="M3.67943 9.64768C1.92104 9.76091 0.560716 11.2399 0.560716 13.0659V17.0775C0.560716 17.8201 1.14881 18.4242 1.87165 18.4242H11.129C11.8515 18.4242 12.4396 17.8201 12.4396 17.0775V13.0659C12.4396 11.2399 11.0793 9.76091 9.32091 9.64768C8.56241 10.4097 7.5658 10.828 6.50017 10.828C5.43454 10.828 4.43793 10.4097 3.67943 9.64768ZM11.129 19H1.87165C0.839716 19 0.000427246 18.1376 0.000427246 17.0775V13.0659C0.000427246 10.8848 1.662 9.12792 3.78311 9.06677C3.86586 9.06543 3.93815 9.09667 3.99277 9.15513C4.65511 9.86271 5.54542 10.2524 6.50017 10.2524C7.45492 10.2524 8.34523 9.86271 9.00757 9.15513C9.06219 9.09667 9.1348 9.06005 9.21723 9.06677C11.3383 9.12826 13.0002 10.8851 13.0002 13.0659V17.0775C13.0002 18.1376 12.1606 19 11.129 19Z" fill="#8B8B8B"/>
</g>
<defs>
<clipPath id="clip0">
<rect width="13" height="19" fill="white"/>
</clipPath>
</defs>
</svg>
