<svg width="18" height="15" viewBox="0 0 18 15" fill="none" xmlns="http://www.w3.org/2000/svg">
<path d="M0.287735 6.78799L6.78816 0.287412C6.97372 0.101853 7.22103 0 7.48474 0C7.74873 0 7.9959 0.101999 8.18146 0.287412L8.77165 0.877749C8.95706 1.06302 9.05921 1.31048 9.05921 1.57433C9.05921 1.83803 8.95706 2.09384 8.77165 2.2791L4.9794 6.07971L17.0276 6.07971C17.5708 6.07971 18 6.50497 18 7.04833V7.88291C18 8.42627 17.5708 8.89441 17.0276 8.89441L4.93637 8.89441L8.77151 12.7162C8.95692 12.9018 9.05906 13.1425 9.05906 13.4064C9.05906 13.6699 8.95692 13.9142 8.77151 14.0996L8.18132 14.688C7.99576 14.8736 7.74859 14.9747 7.48459 14.9747C7.22089 14.9747 6.97357 14.8723 6.78801 14.6867L0.287588 8.18627C0.101589 8.00013 -0.000701904 7.75164 3.05176e-05 7.4875C-0.000555038 7.22248 0.101589 6.97385 0.287735 6.78799Z" fill="#500350"/>
<path d="M0.287735 6.78799L6.78816 0.287412C6.97372 0.101853 7.22103 0 7.48474 0C7.74873 0 7.9959 0.101999 8.18146 0.287412L8.77165 0.877749C8.95706 1.06302 9.05921 1.31048 9.05921 1.57433C9.05921 1.83803 8.95706 2.09384 8.77165 2.2791L4.9794 6.07971L17.0276 6.07971C17.5708 6.07971 18 6.50497 18 7.04833V7.88291C18 8.42627 17.5708 8.89441 17.0276 8.89441L4.93637 8.89441L8.77151 12.7162C8.95692 12.9018 9.05906 13.1425 9.05906 13.4064C9.05906 13.6699 8.95692 13.9142 8.77151 14.0996L8.18132 14.688C7.99576 14.8736 7.74859 14.9747 7.48459 14.9747C7.22089 14.9747 6.97357 14.8723 6.78801 14.6867L0.287588 8.18627C0.101589 8.00013 -0.000701904 7.75164 3.05176e-05 7.4875C-0.000555038 7.22248 0.101589 6.97385 0.287735 6.78799Z" fill="#500350"/>
<path d="M0.287735 6.78799L6.78816 0.287412C6.97372 0.101853 7.22103 0 7.48474 0C7.74873 0 7.9959 0.101999 8.18146 0.287412L8.77165 0.877749C8.95706 1.06302 9.05921 1.31048 9.05921 1.57433C9.05921 1.83803 8.95706 2.09384 8.77165 2.2791L4.9794 6.07971L17.0276 6.07971C17.5708 6.07971 18 6.50497 18 7.04833V7.88291C18 8.42627 17.5708 8.89441 17.0276 8.89441L4.93637 8.89441L8.77151 12.7162C8.95692 12.9018 9.05906 13.1425 9.05906 13.4064C9.05906 13.6699 8.95692 13.9142 8.77151 14.0996L8.18132 14.688C7.99576 14.8736 7.74859 14.9747 7.48459 14.9747C7.22089 14.9747 6.97357 14.8723 6.78801 14.6867L0.287588 8.18627C0.101589 8.00013 -0.000701904 7.75164 3.05176e-05 7.4875C-0.000555038 7.22248 0.101589 6.97385 0.287735 6.78799Z" fill="#500350"/>
<path d="M0.287735 6.78799L6.78816 0.287412C6.97372 0.101853 7.22103 0 7.48474 0C7.74873 0 7.9959 0.101999 8.18146 0.287412L8.77165 0.877749C8.95706 1.06302 9.05921 1.31048 9.05921 1.57433C9.05921 1.83803 8.95706 2.09384 8.77165 2.2791L4.9794 6.07971L17.0276 6.07971C17.5708 6.07971 18 6.50497 18 7.04833V7.88291C18 8.42627 17.5708 8.89441 17.0276 8.89441L4.93637 8.89441L8.77151 12.7162C8.95692 12.9018 9.05906 13.1425 9.05906 13.4064C9.05906 13.6699 8.95692 13.9142 8.77151 14.0996L8.18132 14.688C7.99576 14.8736 7.74859 14.9747 7.48459 14.9747C7.22089 14.9747 6.97357 14.8723 6.78801 14.6867L0.287588 8.18627C0.101589 8.00013 -0.000701904 7.75164 3.05176e-05 7.4875C-0.000555038 7.22248 0.101589 6.97385 0.287735 6.78799Z" fill="#500350"/>
</svg>
