<svg width="10" height="11" viewBox="0 0 10 11" fill="none" xmlns="http://www.w3.org/2000/svg">
<path d="M3.29711 5.97273C2.52239 5.97277 1.76729 5.69826 1.16643 5.18695C0.425164 4.55614 0 3.63626 0 2.6632V1.75452C0 1.64949 0.0409685 1.55071 0.115324 1.47653C0.189437 1.40263 0.287859 1.36194 0.392472 1.36194C0.39282 1.36194 0.393168 1.36194 0.393515 1.36194L2.77262 1.36716C2.92102 1.36747 3.04108 1.48804 3.04076 1.63648C3.04042 1.78467 2.92015 1.90462 2.77207 1.90462C2.77186 1.90462 2.77165 1.90462 2.77144 1.90462L0.537463 1.89971L0.537428 2.66317C0.537428 3.47837 0.893626 4.24905 1.5147 4.77758C2.131 5.30203 2.94123 5.52889 3.7372 5.39976C3.76481 5.39527 3.7926 5.39058 3.82067 5.38567C3.96701 5.36032 4.10612 5.45784 4.13172 5.60401C4.15732 5.75022 4.05956 5.88947 3.91338 5.91507C3.88309 5.92036 3.85301 5.92547 3.8232 5.9303C3.64796 5.95875 3.47198 5.97273 3.29711 5.97273Z" fill="#FFB125"/>
<path d="M6.35165 5.97257C6.17672 5.97257 6.00088 5.95859 5.82553 5.93018C5.79572 5.92534 5.76564 5.92023 5.73535 5.91495C5.58914 5.88935 5.49142 5.75006 5.51701 5.60389C5.54261 5.45768 5.68203 5.36013 5.82807 5.38555C5.8561 5.39049 5.88392 5.39518 5.91154 5.39964C6.70768 5.52866 7.51773 5.30191 8.13404 4.77746C8.75511 4.24897 9.11131 3.47828 9.11131 2.66304V1.89959L6.87733 1.9045C6.87712 1.9045 6.87691 1.9045 6.8767 1.9045C6.72858 1.9045 6.60832 1.78458 6.608 1.63636C6.60766 1.48792 6.72771 1.36735 6.87615 1.36703L9.25536 1.36182C9.25571 1.36182 9.25605 1.36182 9.2564 1.36182C9.36094 1.36182 9.45933 1.40247 9.53348 1.47641C9.60784 1.55063 9.6488 1.64933 9.6488 1.75439V2.66308C9.6488 3.63614 9.22368 4.55602 8.48238 5.18683C7.88151 5.69807 7.12634 5.97257 6.35165 5.97257Z" fill="#FFB125"/>
<path d="M3.05688 9.8671H6.59066C5.12688 8.01084 5.27963 5.33563 5.27963 5.33563H4.82379H4.36795C4.36795 5.33567 4.5207 8.01088 3.05688 9.8671Z" fill="#FED130"/>
<path d="M5.28026 5.33563H4.82442H4.36859C4.36859 5.33563 4.39224 5.75099 4.33141 6.36788C4.21546 7.54377 4.50714 8.72999 5.19534 9.69046C5.23804 9.75007 5.28228 9.80898 5.32808 9.86706H6.59133C5.12752 8.01084 5.28026 5.33563 5.28026 5.33563Z" fill="#F7BC14"/>
<path d="M2.1582 0.591736V2.93617C2.1582 4.3232 2.81742 5.62766 3.93412 6.45037C4.46323 6.84017 5.18447 6.84017 5.71358 6.45037C6.83028 5.62769 7.4895 4.3232 7.4895 2.93617V0.591736H2.1582Z" fill="#FED130"/>
<path d="M6.2205 0.591736V2.93617C6.2205 4.3232 5.56128 5.62766 4.44459 6.45037C4.36359 6.51005 4.27807 6.56048 4.18945 6.60186C4.67976 6.83095 5.26567 6.78052 5.71378 6.45037C6.83048 5.62769 7.4897 4.3232 7.4897 2.93617V0.591736H6.2205Z" fill="#F7BC14"/>
<path d="M7.68091 0.957931H1.96768C1.88157 0.957931 1.81177 0.888131 1.81177 0.80202V0.155911C1.81177 0.0697997 1.88157 0 1.96768 0H7.68091C7.76702 0 7.83682 0.0697997 7.83682 0.155911V0.80202C7.83678 0.888131 7.76698 0.957931 7.68091 0.957931Z" fill="#FFB125"/>
<path d="M7.6807 0H6.56738V0.957896H7.6807C7.76681 0.957896 7.83658 0.888097 7.83658 0.801986V0.155876C7.83658 0.0697997 7.76678 0 7.6807 0Z" fill="#FF901D"/>
<path d="M7.85543 11H1.81654C1.729 11 1.66825 10.9128 1.69857 10.8307L2.14704 9.61551C2.16526 9.56609 2.21235 9.53329 2.26501 9.53329H7.40697C7.45962 9.53329 7.50671 9.56609 7.52493 9.61551L7.9734 10.8307C8.00373 10.9128 7.94297 11 7.85543 11Z" fill="#FFB125"/>
<path d="M7.97338 10.8307L7.52491 9.61551C7.50665 9.56609 7.4596 9.53329 7.40691 9.53329H6.18042L6.72171 11H7.85537C7.94291 11 8.00367 10.9128 7.97338 10.8307Z" fill="#FF901D"/>
</svg>
