<svg width="21" height="21" viewBox="0 0 21 21" fill="none" xmlns="http://www.w3.org/2000/svg">
<path d="M16.4268 13.5705C15.5952 14.7127 14.248 15.4567 12.7302 15.4567H10.6004C9.86472 15.4567 9.23819 14.9896 9.00095 14.3358C8.70811 14.2485 8.42093 14.1351 8.1407 13.9958C7.54725 13.701 7.00839 13.3015 6.53404 12.8066C3.45715 13.4826 1.1543 16.2243 1.1543 19.5042V19.9329C1.1543 20.5223 1.63207 21.0001 2.22141 21.0001H18.7778C19.3672 21.0001 19.845 20.5223 19.845 19.9329V19.5042C19.8449 16.9704 18.4706 14.7578 16.4268 13.5705Z" fill="#9E079E"/>
<path d="M5.40015 10.6071C5.85878 10.6071 6.25798 10.3529 6.46479 9.97777C6.47023 9.99262 6.47576 10.0074 6.48133 10.0221C6.48298 10.0266 6.48462 10.031 6.48627 10.0354C6.97144 11.3125 7.91548 12.3831 9.16031 12.8509C9.46137 12.3725 9.99374 12.0543 10.6008 12.0543H12.7305C12.9429 12.0543 13.1407 11.9944 13.314 11.8975C13.6051 11.7347 13.8669 11.3218 14.0021 11.1029C14.2184 10.7526 14.386 10.3816 14.5346 9.97713C14.6181 10.1288 14.733 10.2607 14.8706 10.3641V10.8864C14.8706 12.0664 13.9106 13.0265 12.7305 13.0265H10.6007C10.1981 13.0265 9.87167 13.3529 9.87167 13.7555C9.87167 14.1582 10.1981 14.4846 10.6007 14.4846H12.7305C14.7145 14.4846 16.3287 12.8704 16.3287 10.8864V10.3641C16.6238 10.1424 16.8147 9.78955 16.8147 9.39204V7.19372V6.35074C16.8147 5.94505 16.6158 5.58611 16.3103 5.3654C16.0733 2.36722 13.5579 0 10.4999 0C7.44182 0 4.92644 2.36722 4.68951 5.36536C4.38402 5.58606 4.18506 5.94505 4.18506 6.35069V9.39195C4.18506 10.0649 4.73177 10.6071 5.40015 10.6071ZM10.4999 1.45813C12.7637 1.45813 14.6309 3.18814 14.8491 5.39551C14.7058 5.50821 14.5885 5.65226 14.5076 5.81755C13.8197 4.02276 12.284 2.77318 10.4998 2.77318C8.67719 2.77318 7.16615 4.0657 6.49476 5.81037C6.49385 5.81275 6.49298 5.81517 6.49207 5.81759C6.4112 5.6523 6.29384 5.50826 6.15057 5.39555C6.36895 3.18814 8.2361 1.45813 10.4999 1.45813Z" fill="#9E079E"/>
</svg>
