<svg width="47" height="53" viewBox="0 0 47 53" fill="none" xmlns="http://www.w3.org/2000/svg">
<path d="M23.5009 0C10.7161 0 0.353516 10.3626 0.353516 23.1473C0.353516 31.8933 5.2015 39.4949 12.3531 43.4337L12.0809 53L23.0027 46.2688C23.1675 46.2725 23.3323 46.2947 23.5009 46.2947C36.2856 46.2947 46.6482 35.9321 46.6482 23.1473C46.6482 10.3626 36.2856 0 23.5009 0ZM22.462 37.0691C20.3954 37.0691 18.9881 35.5469 18.9881 33.5173C18.9881 31.4452 20.4306 29.9619 22.462 29.9619C24.573 29.9619 25.9397 31.4452 25.9767 33.5173C25.9785 35.5414 24.5749 37.0691 22.462 37.0691ZM27.1859 22.5418C25.7434 24.1436 25.1564 25.6639 25.1971 27.4268V28.1249H20.0028L19.9621 27.112C19.8454 25.1232 20.5084 23.0881 22.2694 20.9826C23.5157 19.4956 24.5342 18.2475 24.5342 16.9198C24.5342 15.555 23.6323 14.6569 21.6787 14.581C20.3954 14.581 18.8288 15.0458 17.8196 15.7513L16.49 11.4903C17.8955 10.6718 20.2343 9.89595 23.0083 9.89595C28.1655 9.89595 30.5043 12.744 30.5043 15.9865C30.5062 18.9493 28.6729 20.9011 27.1859 22.5418Z" fill="#A778E7"/>
</svg>
