<svg width="22" height="22" viewBox="0 0 22 22" fill="none" xmlns="http://www.w3.org/2000/svg">
<path d="M15.082 0.377441V4.29675H19.0013L15.082 0.377441Z" fill="#9E079E"/>
<path d="M12.3267 8.25H9.67334C9.17112 9.12669 8.32309 9.7246 7.34766 9.90872V13.0023C7.34766 15.3336 8.80735 17.3586 11 18.1009C13.1927 17.3586 14.6523 15.3336 14.6523 13.0023V9.90872C13.6769 9.7246 12.8289 9.12665 12.3267 8.25V8.25ZM13.2788 12.4318L10.8481 14.8625C10.7222 14.9883 10.5573 15.0513 10.3924 15.0513C10.2275 15.0513 10.0625 14.9884 9.93665 14.8625L8.72132 13.6471C8.46961 13.3954 8.46961 12.9873 8.72132 12.7356C8.97299 12.4839 9.38111 12.4839 9.63282 12.7356L10.3924 13.4952L12.3674 11.5203C12.619 11.2686 13.0271 11.2686 13.2788 11.5203C13.5305 11.772 13.5305 12.1801 13.2788 12.4318V12.4318Z" fill="#9E079E"/>
<path d="M14.4375 5.58594C14.0815 5.58594 13.793 5.29736 13.793 4.94141V0H4.98438C3.68126 0 2.62109 1.06017 2.62109 2.36328V19.6367C2.62109 20.9398 3.68126 22 4.98438 22H17.0156C18.3187 22 19.3789 20.9398 19.3789 19.6367V5.58594H14.4375ZM15.9414 13.0022C15.9414 14.4483 15.4851 15.8259 14.6219 16.9861C13.7587 18.1463 12.5703 18.9792 11.1852 19.3947C11.1248 19.4128 11.0624 19.4219 11 19.4219C10.9376 19.4219 10.8752 19.4128 10.8148 19.3947C9.42971 18.9792 8.24128 18.1463 7.37808 16.9861C6.51488 15.8259 6.05859 14.4483 6.05859 13.0022V9.32422C6.05859 8.96827 6.34717 8.67969 6.70312 8.67969C7.5176 8.67969 8.24983 8.22714 8.61403 7.49869L8.70474 7.31728C8.81392 7.09887 9.0371 6.96094 9.28125 6.96094H12.7188C12.9629 6.96094 13.1861 7.09887 13.2953 7.31723L13.386 7.49869C13.7502 8.22714 14.4824 8.67969 15.2969 8.67969C15.6528 8.67969 15.9414 8.96827 15.9414 9.32422V13.0022Z" fill="#9E079E"/>
</svg>
