<svg width="120" height="217" viewBox="0 0 120 217" fill="none" xmlns="http://www.w3.org/2000/svg">
<g filter="url(#filter0_d)">
<path d="M59.9997 82.0631C74.0578 82.0631 85.4542 70.5815 85.4542 56.4183C85.4542 42.2551 74.0578 30.7735 59.9997 30.7735C45.9416 30.7735 34.5453 42.2551 34.5453 56.4183C34.5453 70.5815 45.9416 82.0631 59.9997 82.0631Z" fill="#929DFE"/>
<path d="M26.0956 67.5489C23.8018 60.3094 23.8018 52.5276 26.0956 45.2881C14.1818 43.6492 4 47.3868 4 56.4185C4 65.4502 14.1818 69.1878 26.0956 67.5489Z" fill="#929DFE"/>
<path d="M43.9079 88.4187C37.1434 84.964 31.6546 79.4342 28.2256 72.6191C18.8045 79.8468 14.17 89.9515 20.3844 96.3185C26.5988 102.674 36.7221 97.9102 43.9079 88.4187Z" fill="#929DFE"/>
<path d="M99.6035 96.3185C105.912 89.9633 101.183 79.8586 91.7624 72.6191C88.3333 79.4342 82.8445 84.964 76.0801 88.4187C83.2541 97.9102 93.2838 102.579 99.6035 96.3185Z" fill="#929DFE"/>
<path d="M116 56.4185C116 47.3868 105.818 43.6492 93.9041 45.2881C96.1979 52.5276 96.1979 60.3094 93.9041 67.5489C105.818 69.1878 116 65.4502 116 56.4185Z" fill="#929DFE"/>
<path d="M91.7624 40.2063C101.183 32.9786 105.818 22.874 99.6035 16.507C93.3891 10.1518 83.2658 14.9153 76.0801 24.4068C82.8445 27.8615 88.3333 33.3913 91.7624 40.2063Z" fill="#929DFE"/>
<path d="M60.0001 0C51.0354 0 47.3255 10.2579 48.9523 22.2609C56.138 19.9263 63.8621 19.9263 71.0479 22.2609C72.6747 10.2579 68.9647 0 60.0001 0Z" fill="#929DFE"/>
<path d="M28.2374 40.2065C31.6665 33.3914 37.1553 27.8616 43.9197 24.4069C36.7456 14.9154 26.716 10.2463 20.3963 16.5071C14.0883 22.768 18.8163 32.967 28.2374 40.2065Z" fill="#929DFE"/>
<path d="M75.5535 203.779C91.7858 194.511 115.087 168.961 115.988 98.806C116.023 97.8628 115.532 96.9785 114.712 96.5304C113.893 96.0824 112.887 96.1531 112.126 96.6955C88.6845 114.429 72.0542 139.802 65.0908 168.501C65.1494 41.8569 65.1259 129.285 65.0908 110.314C70.486 107.189 72.5692 98.7707 71.3052 89.3853C64.1195 91.6962 56.3954 91.6962 49.2096 89.3853C47.9339 98.7707 50.0288 107.177 55.424 110.314C54.4999 108 54.9208 96.8017 54.9208 168.607C47.9574 139.908 31.3271 114.535 7.88561 96.8016C7.13661 96.2592 6.16524 96.1885 5.34602 96.613C4.5268 97.0374 4.02356 97.8864 4.02356 98.806C4.99492 169.373 28.5652 194.818 44.7507 203.944C56.0911 209.167 64.0141 209.603 75.5769 203.779H75.5535Z" fill="#929DFE"/>
</g>
<defs>
<filter id="filter0_d" x="0" y="0" width="120" height="216.005" filterUnits="userSpaceOnUse" color-interpolation-filters="sRGB">
<feFlood flood-opacity="0" result="BackgroundImageFix"/>
<feColorMatrix in="SourceAlpha" type="matrix" values="0 0 0 0 0 0 0 0 0 0 0 0 0 0 0 0 0 0 127 0"/>
<feOffset dy="4"/>
<feGaussianBlur stdDeviation="2"/>
<feColorMatrix type="matrix" values="0 0 0 0 0 0 0 0 0 0 0 0 0 0 0 0 0 0 0.25 0"/>
<feBlend mode="normal" in2="BackgroundImageFix" result="effect1_dropShadow"/>
<feBlend mode="normal" in="SourceGraphic" in2="effect1_dropShadow" result="shape"/>
</filter>
</defs>
</svg>
