<svg width="21" height="21" viewBox="0 0 21 21" fill="none" xmlns="http://www.w3.org/2000/svg">
<g clip-path="url(#clip0)">
<path d="M9.625 13.125C8.17775 13.125 7 11.9473 7 10.5C7 9.05275 8.17775 7.875 9.625 7.875H14V2.40625C14 1.07888 12.9211 0 11.5938 0H2.40625C1.07888 0 0 1.07888 0 2.40625V18.5938C0 19.9211 1.07888 21 2.40625 21H11.5938C12.9211 21 14 19.9211 14 18.5938V13.125H9.625Z" fill="#9E079E"/>
<path d="M16.2899 14.8087C15.9635 14.673 15.75 14.3537 15.75 14.0002V11.3752H9.625C9.142 11.3752 8.75 10.9832 8.75 10.5002C8.75 10.0172 9.142 9.62516 9.625 9.62516H15.75V7.00017C15.75 6.64667 15.9635 6.32729 16.2899 6.19167C16.6171 6.05604 16.9934 6.13129 17.2436 6.38154L20.7436 9.88154C21.0857 10.2237 21.0857 10.7767 20.7436 11.1188L17.2436 14.6188C16.9934 14.869 16.6171 14.9443 16.2899 14.8087Z" fill="#9E079E"/>
</g>
<defs>
<clipPath id="clip0">
<rect width="21" height="21" fill="white"/>
</clipPath>
</defs>
</svg>
