<svg width="18" height="18" viewBox="0 0 18 18" fill="none" xmlns="http://www.w3.org/2000/svg">
<path d="M3.3817 0C3.24291 0 3.10254 0.0410065 2.97952 0.130905L1.38185 1.27909C0.927622 1.60556 0.5491 2.02667 0.280981 2.51717C0.274672 2.52821 0.269941 2.53925 0.263632 2.55029C0.00497571 3.03448 -0.0644199 3.59753 0.0601767 4.13377C0.369303 5.46333 1.41812 9.02931 4.18448 12.0685L4.97465 12.8618C7.99809 15.6456 11.5593 16.7117 12.8873 17.0287C13.064 17.0713 13.2422 17.0918 13.4204 17.0918C13.7832 17.0918 14.1443 17.0051 14.4708 16.8332C14.4818 16.8269 14.4929 16.8221 14.5039 16.8158C14.996 16.5508 15.4203 16.1755 15.7483 15.7228L16.9044 14.1315C17.182 13.7498 17.0037 13.2072 16.5542 13.0637L12.5608 11.7957C12.5041 11.7767 12.4441 11.7689 12.3858 11.7689C12.2643 11.7689 12.1445 11.8067 12.0451 11.8808C11.8022 12.0591 11.3606 12.3035 10.7786 12.3035C10.4932 12.3035 10.1746 12.2452 9.82918 12.0906C8.37661 11.4408 7.02497 10.0371 7.02497 10.0371C7.02497 10.0371 5.6134 8.64764 4.98569 7.22187C4.52042 6.16832 4.93995 5.3687 5.20649 5.00752C5.31689 4.85927 5.34844 4.66843 5.29324 4.49179L4.04569 0.490501C3.95106 0.186106 3.6719 0.00315435 3.38328 0.00315435L3.3817 0ZM3.3817 0.346978C3.50788 0.346978 3.66086 0.422682 3.71291 0.589863L4.96045 4.58957C4.98253 4.65897 4.96991 4.73625 4.92575 4.7946C4.66394 5.14947 4.11666 6.10681 4.6671 7.35593C5.30585 8.80535 6.68272 10.1806 6.77736 10.2753C6.87041 10.3715 8.211 11.742 9.68566 12.4013C10.0468 12.5638 10.4143 12.6458 10.7771 12.6458C11.4379 12.6458 11.9426 12.3792 12.2486 12.1568C12.288 12.1285 12.3353 12.1127 12.3842 12.1127C12.4079 12.1127 12.4315 12.1158 12.4536 12.1237L16.447 13.3918C16.5542 13.4249 16.6347 13.5069 16.671 13.6126C16.7057 13.7198 16.6883 13.8318 16.6221 13.9233L15.466 15.5146C15.1663 15.9279 14.7768 16.2701 14.3383 16.5067C14.3289 16.5114 14.3178 16.5177 14.3084 16.5225C14.0371 16.6644 13.7295 16.7401 13.4204 16.7401C13.2674 16.7401 13.116 16.7228 12.9678 16.6865C12.37 16.5445 11.1493 16.207 9.7109 15.5509C8.00597 14.7734 6.49346 13.7829 5.21595 12.6079L4.43683 11.8256C3.26972 10.5418 2.28714 9.02458 1.51748 7.31493C0.869266 5.87181 0.53806 4.65108 0.397692 4.05176C0.290444 3.59438 0.351954 3.11807 0.569604 2.71116C0.574335 2.7017 0.580644 2.69066 0.585375 2.68119C0.823528 2.24432 1.16893 1.85633 1.58373 1.55825L3.1814 0.410065C3.24133 0.367481 3.30915 0.345401 3.38013 0.345401L3.3817 0.346978Z" fill="#8B8B8B"/>
</svg>
