<svg width="58" height="34" viewBox="0 0 58 34" fill="none" xmlns="http://www.w3.org/2000/svg">
<line x1="1.5" y1="9" x2="1.5" y2="34" stroke="url(#paint0_linear)" stroke-width="3"/>
<line x1="1.5" y1="1" x2="1.5" y2="9" stroke="#FF0000" stroke-width="3"/>
<line x1="9.5" y1="5" x2="9.5" y2="17" stroke="#FF0000" stroke-width="3"/>
<line x1="25.5" y1="-6.55671e-08" x2="25.5" y2="12" stroke="#FF0000" stroke-width="3"/>
<line x1="25.5" y1="9" x2="25.5" y2="34" stroke="url(#paint1_linear)" stroke-width="3"/>
<line x1="33.5" y1="5" x2="33.5" y2="34" stroke="url(#paint2_linear)" stroke-width="3"/>
<line x1="49.5" y1="17" x2="49.5" y2="34" stroke="url(#paint3_linear)" stroke-width="3"/>
<line x1="56.5" y1="11" x2="56.5" y2="34" stroke="url(#paint4_linear)" stroke-width="3"/>
<line x1="17.5" y1="1" x2="17.5" y2="34" stroke="url(#paint5_linear)" stroke-width="3"/>
<line x1="9.5" y1="17" x2="9.5" y2="34" stroke="url(#paint6_linear)" stroke-width="3"/>
<line x1="41.5" y1="22" x2="41.5" y2="34" stroke="#FF0000" stroke-width="3"/>
<defs>
<linearGradient id="paint0_linear" x1="-5.46392e-07" y1="21.5" x2="-1" y2="21.5" gradientUnits="userSpaceOnUse">
<stop stop-color="#9E079E"/>
<stop offset="0.984375" stop-color="#9E079E"/>
</linearGradient>
<linearGradient id="paint1_linear" x1="24" y1="21.5" x2="23" y2="21.5" gradientUnits="userSpaceOnUse">
<stop stop-color="#9E079E"/>
<stop offset="0.984375" stop-color="#9E079E"/>
</linearGradient>
<linearGradient id="paint2_linear" x1="32" y1="19.5" x2="31" y2="19.5" gradientUnits="userSpaceOnUse">
<stop stop-color="#9E079E"/>
<stop offset="0.984375" stop-color="#9E079E"/>
</linearGradient>
<linearGradient id="paint3_linear" x1="48" y1="25.5" x2="47" y2="25.5" gradientUnits="userSpaceOnUse">
<stop stop-color="#9E079E"/>
<stop offset="0.984375" stop-color="#9E079E"/>
</linearGradient>
<linearGradient id="paint4_linear" x1="55" y1="22.5" x2="54" y2="22.5" gradientUnits="userSpaceOnUse">
<stop stop-color="#9E079E"/>
<stop offset="0.984375" stop-color="#9E079E"/>
</linearGradient>
<linearGradient id="paint5_linear" x1="16" y1="17.5" x2="15" y2="17.5" gradientUnits="userSpaceOnUse">
<stop stop-color="#9E079E"/>
<stop offset="0.984375" stop-color="#9E079E"/>
</linearGradient>
<linearGradient id="paint6_linear" x1="8" y1="25.5" x2="7" y2="25.5" gradientUnits="userSpaceOnUse">
<stop stop-color="#9E079E"/>
<stop offset="0.984375" stop-color="#9E079E"/>
</linearGradient>
</defs>
</svg>
