<svg width="47" height="46" viewBox="0 0 47 46" fill="none" xmlns="http://www.w3.org/2000/svg">
<path d="M4.73523 29.2202L4.97641 25.1036C5.35784 18.5931 10.9659 13.6058 17.4765 13.9872L31.1532 14.7867L31.5075 8.74021C31.5516 7.98791 32.045 7.33249 32.7579 7.08501C33.4709 6.83752 34.2664 7.0464 34.7678 7.61018L45.5235 19.7046C46.2086 20.4749 46.1394 21.6561 45.3691 22.3412L33.2746 33.0969C32.7109 33.5983 31.8982 33.7111 31.2191 33.3821C30.5415 33.0549 30.1243 32.3497 30.1704 31.5922L30.5228 25.5474L13.9301 24.5752C11.0791 24.4082 8.62673 26.5891 8.46156 29.4385C8.40121 30.4685 7.51739 31.2545 6.48738 31.1941C5.45737 31.1338 4.67489 30.2502 4.73523 29.2202Z" fill="#FF825F"/>
</svg>
