<svg width="38" height="30" viewBox="0 0 38 30" fill="none" xmlns="http://www.w3.org/2000/svg">
<path d="M30.3999 0.75L22.8 8.35005H28.5V21.65C28.5 23.7495 26.7995 25.45 24.7 25.45C22.6005 25.45 20.8999 23.7496 20.8999 21.65V8.35005C20.8999 4.16056 17.4895 0.750089 13.3 0.750089C9.11046 0.750089 5.7 4.16056 5.7 8.35005V21.65H0L7.59996 29.25L15.2 21.65H9.50002V8.35005C9.50002 6.25059 11.2005 4.55003 13.3 4.55003C15.3996 4.55003 17.1 6.2505 17.1 8.35005V21.65C17.1 25.8395 20.5105 29.25 24.7 29.25C28.8894 29.25 32.2999 25.8395 32.2999 21.65V8.35005H37.9999L30.3999 0.75Z" fill="#F9D050"/>
</svg>
