<svg width="167" height="167" viewBox="0 0 167 167" fill="none" xmlns="http://www.w3.org/2000/svg">
<path d="M133.6 20.8748L100.2 54.275H125.25V112.725C125.25 121.951 117.777 129.425 108.55 129.425C99.3232 129.425 91.8497 121.952 91.8497 112.725V54.275C91.8497 35.8633 76.8616 20.8751 58.4498 20.8751C40.0381 20.8751 25.05 35.8633 25.05 54.275V112.725H0L33.3998 146.125L66.8001 112.725H41.7501V54.275C41.7501 45.0484 49.2232 37.5749 58.4502 37.5749C67.6772 37.5749 75.1499 45.048 75.1499 54.275V112.725C75.1499 131.137 90.1381 146.125 108.55 146.125C126.962 146.125 141.95 131.137 141.95 112.725V54.275H167L133.6 20.8748Z" fill="#929DFE"/>
</svg>
