<svg width="161" height="161" viewBox="0 0 161 161" fill="none" xmlns="http://www.w3.org/2000/svg">
<g clip-path="url(#clip0)">
<path d="M59.4762 83.3645L50.8023 74.6906C47.5353 71.4236 47.5353 66.1039 50.8023 62.8303L93.5075 20.125L81.9692 8.58667C80.5336 7.15108 80.0976 4.98429 80.8758 3.10596C81.6539 1.22763 83.4987 0 85.5313 0H129.135C131.913 0 134.167 2.254 134.167 5.03125V48.6354C134.167 50.668 132.939 52.5061 131.061 53.2843C129.182 54.0625 127.022 53.6398 125.58 52.1908L114.042 40.6592L71.3365 83.3645C68.0763 86.618 62.7633 86.6448 59.4762 83.3645Z" fill="#929DFE"/>
<path d="M75.4687 161H31.8645C29.0873 161 26.8333 158.746 26.8333 155.969V112.364C26.8333 110.332 28.0609 108.494 29.9392 107.716C31.8176 106.937 33.9844 107.367 35.42 108.809L46.9583 120.341L89.6635 77.6354C92.9305 74.3684 98.2502 74.3684 101.524 77.6354L110.198 86.3093C113.465 89.5762 113.465 94.896 110.198 98.1696L67.4925 140.875L79.0308 152.413C80.4664 153.849 80.9025 156.016 80.1243 157.894C79.3461 159.772 77.5013 161 75.4687 161Z" fill="#929DFE"/>
</g>
<defs>
<clipPath id="clip0">
<rect width="161" height="161" fill="white"/>
</clipPath>
</defs>
</svg>
