<svg width="26" height="26" viewBox="0 0 26 26" fill="none" xmlns="http://www.w3.org/2000/svg">
<path d="M2.28516 0C1.02512 0 0 1.02512 0 2.28516V11.5781H11.5781V0H2.28516ZM7.56641 6.55078H6.55078V7.56641C6.55078 7.98708 6.20973 8.32812 5.78906 8.32812C5.36839 8.32812 5.02734 7.98708 5.02734 7.56641V6.55078H4.01172C3.59105 6.55078 3.25 6.20973 3.25 5.78906C3.25 5.36839 3.59105 5.02734 4.01172 5.02734H5.02734V4.01172C5.02734 3.59105 5.36839 3.25 5.78906 3.25C6.20973 3.25 6.55078 3.59105 6.55078 4.01172V5.02734H7.56641C7.98708 5.02734 8.32812 5.36839 8.32812 5.78906C8.32812 6.20973 7.98708 6.55078 7.56641 6.55078Z" fill="#8E4DE6"/>
<path d="M24.265 11.5781H24.6797V2.28516C24.6797 1.02512 23.6546 0 22.3945 0H13.1016V11.3034C14.6091 10.1692 16.4822 9.49609 18.5098 9.49609C20.696 9.49609 22.7027 10.2787 24.265 11.5781ZM16.3516 5.78906C16.3516 5.36839 16.6926 5.02734 17.1133 5.02734H20.668C21.0886 5.02734 21.4297 5.36839 21.4297 5.78906C21.4297 6.20973 21.0886 6.55078 20.668 6.55078H17.1133C16.6926 6.55078 16.3516 6.20973 16.3516 5.78906Z" fill="#8E4DE6"/>
<path d="M11.3034 13.1016H0V22.3945C0 23.6546 1.02512 24.6797 2.28516 24.6797H11.5781V24.265C10.2787 22.7027 9.49609 20.6959 9.49609 18.5098C9.49609 16.4822 10.1692 14.6091 11.3034 13.1016ZM7.59718 19.6216C7.89466 19.919 7.89466 20.4013 7.59718 20.6988C7.44849 20.8475 7.25354 20.9219 7.05859 20.9219C6.86364 20.9219 6.66869 20.8475 6.52001 20.6987L5.78906 19.9678L5.05812 20.6988C4.90943 20.8475 4.71448 20.9219 4.51953 20.9219C4.32458 20.9219 4.12963 20.8475 3.98095 20.6987C3.68347 20.4013 3.68347 19.919 3.98095 19.6215L4.71184 18.8906L3.98089 18.1597C3.68342 17.8622 3.68342 17.3799 3.98089 17.0825C4.27832 16.785 4.76064 16.785 5.05812 17.0825L5.78906 17.8134L6.52001 17.0825C6.81743 16.785 7.29975 16.785 7.59723 17.0825C7.89471 17.3799 7.89471 17.8622 7.59723 18.1597L6.86628 18.8906L7.59718 19.6216Z" fill="#8E4DE6"/>
<path d="M18.5098 11.0195C14.3796 11.0195 11.0195 14.3796 11.0195 18.5098C11.0195 22.6399 14.3796 26 18.5098 26C22.6399 26 26 22.6399 26 18.5098C26 14.3796 22.6399 11.0195 18.5098 11.0195ZM20.2871 20.541H16.7324C16.3117 20.541 15.9707 20.2 15.9707 19.7793C15.9707 19.3586 16.3117 19.0176 16.7324 19.0176H20.2871C20.7078 19.0176 21.0488 19.3586 21.0488 19.7793C21.0488 20.2 20.7078 20.541 20.2871 20.541ZM20.2871 18.002H16.7324C16.3117 18.002 15.9707 17.6609 15.9707 17.2402C15.9707 16.8196 16.3117 16.4785 16.7324 16.4785H20.2871C20.7078 16.4785 21.0488 16.8196 21.0488 17.2402C21.0488 17.6609 20.7078 18.002 20.2871 18.002Z" fill="#8E4DE6"/>
</svg>
