<svg width="376" height="392" viewBox="0 0 376 392" fill="none" xmlns="http://www.w3.org/2000/svg">
<path d="M335.309 42.6992H319.742V31.7617C319.742 14.2188 305.523 0 287.984 0C270.441 0 256.223 14.2188 256.223 31.7617V42.6992H119.02V31.7617C119.02 14.2188 104.801 0 87.2578 0C69.7188 0 55.4961 14.2188 55.4961 31.7617V42.6992H39.9297C17.8867 42.7266 0.0234375 60.5859 0 82.6289V352.07C0.0234375 374.113 17.8867 391.977 39.9297 392H335.309C357.352 391.977 375.215 374.113 375.238 352.07V82.6328C375.215 60.5898 357.352 42.7266 335.309 42.6992V42.6992ZM268.219 31.7617C268.219 20.8477 277.066 12 287.98 12C298.895 12 307.742 20.8477 307.742 31.7617V52.8242C307.742 63.7383 298.895 72.5859 287.98 72.5859C277.066 72.5859 268.219 63.7383 268.219 52.8242V31.7617ZM67.4922 31.7617C67.4922 20.8477 76.3398 12 87.2539 12C98.1641 12 107.012 20.8477 107.012 31.7617V52.8242C107.012 63.7383 98.1641 72.5859 87.2539 72.5859C76.3398 72.5859 67.4922 63.7383 67.4922 52.8242V31.7617ZM39.9297 54.6992H55.5547C56.5508 71.4766 70.4492 84.5703 87.2539 84.5703C104.059 84.5703 117.957 71.4766 118.953 54.6992H256.281C257.281 71.4766 271.176 84.5703 287.98 84.5703C304.789 84.5703 318.684 71.4766 319.684 54.6992H335.309C350.727 54.7187 363.219 67.2109 363.238 82.6289V141.469H12V82.6328C12.0156 67.2148 24.5117 54.7187 39.9297 54.6992ZM335.309 380H39.9297C24.5117 379.98 12.0195 367.488 12 352.07V153.473H363.238V352.07C363.219 367.488 350.727 379.98 335.309 380Z" fill="#8B8B8B"/>
</svg>
