<svg width="23" height="23" viewBox="0 0 23 23" fill="none" xmlns="http://www.w3.org/2000/svg">
<path d="M18.2832 0H4.7168C2.11596 0 0 2.11596 0 4.7168V18.2832C0 20.884 2.11596 23 4.7168 23H18.2832C20.884 23 23 20.884 23 18.2832V4.7168C23 2.11596 20.884 0 18.2832 0ZM17.5786 16.6161L17.2177 17.2176C15.8142 18.6211 12.1166 17.1989 8.95886 14.0411C5.80112 10.8834 4.37894 7.18584 5.78239 5.78234L6.38389 5.42144C6.92884 5.0945 7.63569 5.27118 7.96263 5.81613L8.81426 7.23548C9.08594 7.68824 9.01456 8.26778 8.64122 8.64117C8.11491 9.16748 8.11491 10.0208 8.64122 10.547L12.453 14.3588C12.9793 14.8851 13.8326 14.8851 14.3588 14.3588C14.7322 13.9854 15.3118 13.9141 15.7645 14.1857L17.1839 15.0373C17.7288 15.3643 17.9055 16.0712 17.5786 16.6161Z" fill="white"/>
</svg>
