<svg width="14" height="14" viewBox="0 0 14 14" fill="none" xmlns="http://www.w3.org/2000/svg">
<path d="M11.9583 3.20831H10.2083C10.0829 3.20831 9.9715 3.12839 9.93182 3.00881L9.7475 2.45581C9.54857 1.85906 8.99268 1.45831 8.36382 1.45831H5.63615C5.00732 1.45831 4.4514 1.85906 4.25307 2.45524L4.06875 3.00881C4.0285 3.12839 3.91707 3.20831 3.79168 3.20831H2.04168C0.915824 3.20831 0 4.12416 0 5.24999V10.5C0 11.6258 0.915824 12.5417 2.04168 12.5417H11.9584C13.0842 12.5417 14 11.6258 14 10.5V5.24999C14 4.12416 13.0842 3.20831 11.9583 3.20831ZM13.4167 10.5C13.4167 11.3038 12.7622 11.9583 11.9584 11.9583H2.04168C1.23785 11.9583 0.583352 11.3038 0.583352 10.5V5.24999C0.583352 4.44616 1.23785 3.79166 2.04168 3.79166H3.79168C4.1685 3.79166 4.50218 3.55134 4.62175 3.19374L4.80668 2.63956C4.92568 2.28199 5.25935 2.04164 5.63618 2.04164H8.36385C8.74068 2.04164 9.07435 2.28196 9.19393 2.64014L9.37825 3.19371C9.49782 3.55129 9.8315 3.79164 10.2083 3.79164H11.9583C12.7621 3.79164 13.4166 4.44614 13.4166 5.24996V10.5H13.4167Z" fill="#AD81E9"/>
<path d="M7 4.375C5.06975 4.375 3.5 5.94475 3.5 7.875C3.5 9.80525 5.06975 11.375 7 11.375C8.93025 11.375 10.5 9.80525 10.5 7.875C10.5 5.94475 8.93025 4.375 7 4.375ZM7 10.7917C5.39175 10.7917 4.08332 9.48325 4.08332 7.875C4.08332 6.26675 5.39175 4.95832 7 4.95832C8.60825 4.95832 9.91668 6.26675 9.91668 7.875C9.91668 9.48325 8.60825 10.7917 7 10.7917Z" fill="#AD81E9"/>
<path d="M6.99996 5.54169C5.71313 5.54169 4.66663 6.58819 4.66663 7.87501C4.66663 8.03601 4.7973 8.16669 4.9583 8.16669C5.1193 8.16669 5.24995 8.03601 5.24995 7.87501C5.24995 6.91019 6.03513 6.12501 6.99996 6.12501C7.16096 6.12501 7.29163 5.99433 7.29163 5.83333C7.29163 5.67234 7.16096 5.54169 6.99996 5.54169Z" fill="#AD81E9"/>
</svg>
