<svg width="21" height="21" viewBox="0 0 21 21" fill="none" xmlns="http://www.w3.org/2000/svg">
<path d="M17.9375 7.875H16.625V6.12499C16.625 2.74764 13.8774 0 10.5 0C7.12261 0 4.37501 2.74764 4.37501 6.12499V7.875H3.06251C2.82069 7.875 2.625 8.07069 2.625 8.31251V19.25C2.625 20.2152 3.40983 21 4.37501 21H16.625C17.5902 21 18.375 20.2152 18.375 19.25V8.31251C18.375 8.07069 18.1793 7.875 17.9375 7.875ZM11.81 17.0142C11.8236 17.1377 11.7839 17.2616 11.701 17.3543C11.6181 17.447 11.4993 17.5 11.375 17.5H9.62501C9.5007 17.5 9.38191 17.447 9.29902 17.3543C9.21613 17.2616 9.17638 17.1377 9.19008 17.0142L9.46608 14.5324C9.0179 14.2064 8.75003 13.6907 8.75003 13.125C8.75003 12.1599 9.53486 11.375 10.5 11.375C11.4652 11.375 12.2501 12.1598 12.2501 13.125C12.2501 13.6907 11.9822 14.2064 11.534 14.5324L11.81 17.0142ZM14 7.875H7.00001V6.12499C7.00001 4.19512 8.57013 2.625 10.5 2.625C12.4299 2.625 14 4.19512 14 6.12499V7.875V7.875Z" fill="#9E079E"/>
</svg>
