<svg width="28" height="21" viewBox="0 0 28 21" fill="none" xmlns="http://www.w3.org/2000/svg">
<path d="M23.402 20.721H4.54108C2.18749 20.721 0.279907 18.8127 0.279907 16.4583V4.54279C0.279907 2.18836 2.18749 0.28009 4.54108 0.28009H23.402C25.7556 0.28009 27.6632 2.18836 27.6632 4.54279V16.4583C27.6632 18.8127 25.7556 20.721 23.402 20.721Z" fill="url(#paint0_linear)"/>
<path d="M23.4015 21H4.54059C2.03655 21 0 18.9627 0 16.4577V4.54223C0 2.03728 2.03655 0 4.54059 0H23.4015C25.9056 0 27.9421 2.03728 27.9421 4.54223V16.4577C27.9421 18.9627 25.9056 21 23.4015 21ZM4.54059 0.560835C2.34642 0.560835 0.560633 2.34726 0.560633 4.54223V16.4577C0.560633 18.6527 2.34642 20.4391 4.54059 20.4391H23.4015C25.5957 20.4391 27.3815 18.6527 27.3815 16.4577V4.54223C27.3815 2.34726 25.5957 0.560835 23.4015 0.560835H4.54059Z" fill="black"/>
<path d="M13.2152 7.65101H0.279421C0.125381 7.65101 0 7.52559 0 7.37149C0 7.2174 0.125381 7.09197 0.279421 7.09197H13.2134C13.4767 7.09197 13.6898 6.87875 13.6898 6.61535V4.92747C13.6898 4.77338 13.8152 4.64795 13.9693 4.64795C14.1233 4.64795 14.2487 4.77338 14.2487 4.92747V6.61535C14.2505 7.18514 13.7866 7.65101 13.2152 7.65101Z" fill="black"/>
<path d="M27.6627 13.9098H0.279421C0.125381 13.9098 0 13.7844 0 13.6303C0 13.4762 0.125381 13.3508 0.279421 13.3508H27.6609C27.8149 13.3508 27.9403 13.4762 27.9403 13.6303C27.9421 13.7844 27.8167 13.9098 27.6627 13.9098Z" fill="black"/>
<path d="M13.971 5.20699C13.9029 5.20699 13.8348 5.1819 13.7829 5.13353L8.6942 0.487376C8.57956 0.383451 8.5724 0.206063 8.67629 0.091387C8.78017 -0.0232885 8.9575 -0.0304557 9.07213 0.073469L13.971 4.54761L18.8716 0.073469C18.9862 -0.0304557 19.1635 -0.0232885 19.2674 0.091387C19.3713 0.206063 19.3641 0.383451 19.2495 0.487376L14.1608 5.13353C14.1071 5.1819 14.039 5.20699 13.971 5.20699Z" fill="black"/>
<path d="M13.9708 16.3538C13.8168 16.3538 13.6914 16.2284 13.6914 16.0743V13.6303C13.6914 13.4762 13.8168 13.3508 13.9708 13.3508C14.1249 13.3508 14.2502 13.4762 14.2502 13.6303V16.0743C14.2502 16.2284 14.1249 16.3538 13.9708 16.3538Z" fill="black"/>
<path d="M19.0597 21C18.9917 21 18.9254 20.9767 18.8717 20.9266L13.971 16.4524L9.07042 20.9266C8.95579 21.0305 8.77847 21.0233 8.67458 20.9087C8.57069 20.794 8.57786 20.6166 8.69249 20.5127L13.7812 15.8665C13.8886 15.7698 14.0516 15.7698 14.1591 15.8665L19.2478 20.5127C19.3624 20.6166 19.3696 20.794 19.2657 20.9087C19.212 20.9696 19.1367 21 19.0597 21Z" fill="black"/>
<path d="M10.491 13.9097C10.3369 13.9097 10.2115 13.7843 10.2115 13.6302V7.37144C10.2115 7.21735 10.3369 7.09192 10.491 7.09192C10.645 7.09192 10.7704 7.21735 10.7704 7.37144V13.6302C10.7722 13.7843 10.6468 13.9097 10.491 13.9097Z" fill="black"/>
<path d="M17.4514 13.9097C17.2974 13.9097 17.172 13.7843 17.172 13.6302V8.12937C17.172 7.55779 17.6377 7.09192 18.2091 7.09192H27.6628C27.8169 7.09192 27.9422 7.21735 27.9422 7.37144C27.9422 7.52554 27.8169 7.65096 27.6628 7.65096H18.2091C17.9458 7.65096 17.7326 7.86419 17.7326 8.12758V13.6284C17.7308 13.7843 17.6055 13.9097 17.4514 13.9097Z" fill="black"/>
<defs>
<linearGradient id="paint0_linear" x1="13.9715" y1="1.31357" x2="13.9715" y2="20.468" gradientUnits="userSpaceOnUse">
<stop stop-color="#FFC45B"/>
<stop offset="0.1596" stop-color="#F2B55D"/>
<stop offset="0.4283" stop-color="#E3A261"/>
<stop offset="0.7051" stop-color="#D99762"/>
<stop offset="1" stop-color="#D69363"/>
</linearGradient>
</defs>
</svg>
