<svg width="24" height="24" viewBox="0 0 24 24" fill="none" xmlns="http://www.w3.org/2000/svg">
<g clip-path="url(#clip0)">
<path d="M15.7203 12.0914C15.3834 12.0914 15.1094 12.3655 15.1094 12.7024V14.7444C15.1094 15.0813 15.3835 15.3553 15.7203 15.3553H24V12.0915H15.7203V12.0914ZM16.7506 14.6652C16.2304 14.6652 15.8087 14.2435 15.8087 13.7233C15.8087 13.2031 16.2304 12.7814 16.7506 12.7814C17.2708 12.7814 17.6925 13.2031 17.6925 13.7233C17.6925 14.2435 17.2708 14.6652 16.7506 14.6652Z" fill="#7381FF"/>
<path d="M15.7203 10.6657H24V7.16953C24 6.04645 23.0863 5.13281 21.9633 5.13281H21.6781H6.26733H2.03672C0.913688 5.13281 0 6.04645 0 7.16953V21.703C0 22.8261 0.913688 23.7397 2.03672 23.7397H21.9632C23.0863 23.7397 24 22.8261 24 21.703V16.7811H15.7203C14.5972 16.7811 13.6836 15.8675 13.6836 14.7444V12.7024C13.6836 11.5793 14.5973 10.6657 15.7203 10.6657Z" fill="#7381FF"/>
<path d="M19.9418 0.260254L10.2688 3.70697H21.17L19.9418 0.260254Z" fill="#7381FF"/>
</g>
<defs>
<clipPath id="clip0">
<rect width="24" height="24" fill="white"/>
</clipPath>
</defs>
</svg>
