<svg width="16" height="17" viewBox="0 0 16 17" fill="none" xmlns="http://www.w3.org/2000/svg">
<path d="M1.97708 0.958509C1.76492 0.957211 1.56112 1.04104 1.41123 1.19119L0.277134 2.31942C-0.035908 2.63077 -0.0373406 3.13695 0.273936 3.45006L1.75319 4.93784C1.75912 4.94797 1.76562 4.95776 1.77265 4.96716L10.7977 14.0365C10.8162 14.0532 10.8371 14.0672 10.8595 14.078C10.8611 14.078 10.8619 14.0807 10.8635 14.0815L10.8689 14.0844C10.8763 14.0882 10.883 14.0927 10.8907 14.0959L14.7656 16.1381L15.4999 16.8766C15.6019 16.9828 15.7706 16.9861 15.8767 16.8842C15.9829 16.7822 15.9862 16.6135 15.8842 16.5073C15.8821 16.5051 15.88 16.503 15.8778 16.5008L15.1653 15.7838L13.1301 11.8741C13.1175 11.8373 13.0969 11.8037 13.0699 11.7757L4.23431 2.89594L4.61225 2.52012L7.80611 5.73397C7.90996 5.83835 8.07874 5.83875 8.18312 5.7349C8.2875 5.63106 8.2879 5.46228 8.18405 5.35789L4.80202 1.95534C4.69794 1.85129 4.52923 1.85129 4.42515 1.95534L3.8585 2.51853L2.54183 1.19492C2.3929 1.0436 2.1894 0.95841 1.97708 0.958509ZM14.3101 15.2953L11.4339 13.7793L12.8079 12.4114L14.3101 15.2953ZM12.503 11.9618L10.9867 13.4706L2.33956 4.78165L3.85613 3.27281L12.503 11.9618ZM2.16285 1.56914L2.16392 1.56967L3.47926 2.89247L1.96748 4.39678L0.651879 3.07424C0.547831 2.97016 0.547831 2.80145 0.651879 2.69737L1.78597 1.56914C1.89006 1.46509 2.05877 1.46509 2.16285 1.56914Z" fill="#8B8B8B"/>
</svg>
