<svg width="32" height="42" viewBox="0 0 32 42" fill="none" xmlns="http://www.w3.org/2000/svg">
<path d="M27.8524 36.0934C27.812 36.0583 27.7656 36.0322 27.7158 36.0167C27.6661 36.0011 27.6141 35.9964 27.5627 36.0027C27.5112 36.0091 27.4615 36.0265 27.4163 36.0538C27.3711 36.0811 27.3313 36.1178 27.2991 36.1619C26.1428 37.7504 24.7515 39.1189 23.182 40.2116C23.094 40.2726 23.0319 40.3691 23.0093 40.4798C22.9867 40.5906 23.0056 40.7065 23.0617 40.8022C23.1178 40.8979 23.2066 40.9654 23.3086 40.9899C23.4105 41.0144 23.5172 40.9939 23.6053 40.9329C25.2476 39.7892 26.7035 38.3567 27.9132 36.6939C27.9456 36.6502 27.9698 36.5999 27.9843 36.5461C27.9987 36.4922 28.0033 36.4357 27.9976 36.3799C27.992 36.3241 27.9762 36.2701 27.9513 36.2209C27.9264 36.1717 27.8928 36.1284 27.8524 36.0934V36.0934Z" fill="#0DD88F"/>
<path d="M29.6663 34.7099C28.8878 34.5437 28.1247 34.3163 27.3846 34.0298C27.2947 33.9949 27.1951 33.9905 27.1022 34.0175C27.0094 34.0444 26.9288 34.101 26.8737 34.178C24.9788 36.8191 22.4814 38.7706 19.4502 39.9787C17.5386 40.7424 15.4939 41.1483 13.4251 41.1745C13.3116 41.1752 13.2031 41.2193 13.1234 41.2972C13.0437 41.3751 12.9993 41.4804 13 41.5899C13.0007 41.6993 13.0465 41.804 13.1272 41.8809C13.208 41.9579 13.317 42.0007 13.4305 42H13.4365C15.6129 41.9724 17.764 41.5455 19.7749 40.742C22.858 39.513 25.415 37.5533 27.3804 34.9146C28.0645 35.1628 28.766 35.3638 29.4795 35.5163C29.5904 35.5399 29.7064 35.5201 29.8021 35.4613C29.8978 35.4024 29.9654 35.3093 29.9899 35.2023C30.0144 35.0954 29.9939 34.9835 29.9329 34.8911C29.8719 34.7988 29.7753 34.7336 29.6645 34.7099H29.6663Z" fill="#0DD88F"/>
<path d="M29.6592 33.2361C28.3805 33.0183 27.1448 32.6165 25.9951 32.0448C25.9007 31.998 25.7907 31.9874 25.6882 32.0153C25.5857 32.0431 25.4985 32.1073 25.4448 32.1944C23.72 34.9994 21.3103 37.0207 18.2781 38.2032C14.7683 39.5722 10.8125 39.5639 7.23291 38.1444C7.00871 38.0558 6.79384 37.9645 6.59526 37.8727C6.49672 37.8272 6.38309 37.8205 6.27934 37.8541C6.17559 37.8877 6.09023 37.9589 6.04204 38.052C5.99386 38.145 5.98679 38.2524 6.02239 38.3504C6.058 38.4484 6.13335 38.529 6.23188 38.5745C6.44502 38.6729 6.67446 38.7708 6.91321 38.8649C10.6081 40.3301 14.7957 40.4049 18.5937 38.9254C21.68 37.7209 24.1567 35.6963 25.9602 32.9039C27.0847 33.4241 28.2802 33.7944 29.5124 34.0039C29.566 34.013 29.6209 34.0121 29.674 34.0011C29.7272 33.9902 29.7775 33.9695 29.8222 33.9402C29.8668 33.9108 29.9049 33.8735 29.9343 33.8303C29.9637 33.7871 29.9838 33.7388 29.9935 33.6882C30.0031 33.6377 30.0021 33.5858 29.9905 33.5356C29.9789 33.4854 29.957 33.4379 29.9259 33.3957C29.8949 33.3535 29.8554 33.3175 29.8096 33.2897C29.7638 33.262 29.7127 33.243 29.6592 33.2339V33.2361Z" fill="#0DD88F"/>
<path d="M11.2882 0.976407C12.2054 1.24116 13.0969 1.56962 13.9542 1.95864C14.0077 1.98291 14.0665 1.99685 14.1267 1.99952C14.1869 2.0022 14.247 1.99355 14.3031 1.97415C16.3166 1.2748 18.4433 0.856133 20.6054 0.733433C20.6606 0.730533 20.7146 0.718126 20.7643 0.696925C20.814 0.675724 20.8584 0.646147 20.895 0.609892C20.9316 0.573637 20.9596 0.531419 20.9775 0.485663C20.9953 0.439907 21.0027 0.391515 20.9991 0.343266C20.9955 0.295018 20.9811 0.247863 20.9566 0.204511C20.9321 0.16116 20.8981 0.122466 20.8564 0.0906519C20.8148 0.0588377 20.7664 0.0345304 20.7139 0.0191264C20.6615 0.00372239 20.6061 -0.00247524 20.551 0.000890254C18.3649 0.125445 16.2134 0.540868 14.1706 1.23282C13.3262 0.857745 12.4508 0.538403 11.5519 0.277468C11.4461 0.246893 11.3308 0.254307 11.2313 0.29808C11.1317 0.341853 11.0562 0.418399 11.0212 0.510878C10.9863 0.603358 10.9947 0.704196 11.0448 0.791208C11.0949 0.878221 11.1824 0.944281 11.2882 0.974856V0.976407Z" fill="#0DD88F"/>
<path d="M30.6321 31.2741C28.7875 30.9882 27.0354 30.236 25.5249 29.0813C25.4723 29.0428 25.4122 29.0171 25.3491 29.0061C25.2859 28.9951 25.2212 28.9991 25.1597 29.0178C25.0975 29.0366 25.0399 29.0697 24.991 29.1146C24.9422 29.1595 24.9032 29.2152 24.877 29.2777L24.8649 29.3057C23.2449 33.029 20.7743 35.6374 17.518 37.0599C14.3598 38.4359 10.751 38.4709 7.42315 36.9963C5.24789 36.0302 3.23866 34.3637 1.76843 32.3031C1.70015 32.2075 1.59873 32.1445 1.48648 32.128C1.37423 32.1114 1.26034 32.1426 1.16988 32.2148C1.07942 32.2869 1.01979 32.3941 1.00411 32.5127C0.98843 32.6313 1.01798 32.7516 1.08627 32.8472C2.65034 35.033 4.78228 36.8018 7.0947 37.8289C10.5711 39.3696 14.4157 39.3893 17.8465 37.8925C21.1773 36.4389 23.7328 33.8247 25.4473 30.1218C26.9729 31.1888 28.7023 31.8878 30.5124 32.169C30.6248 32.1858 30.7388 32.1547 30.8294 32.0827C30.9201 32.0106 30.9799 31.9035 30.9958 31.7848C31.0117 31.6661 30.9823 31.5457 30.9141 31.4499C30.8459 31.3541 30.7445 31.2909 30.6321 31.2741V31.2741Z" fill="#0DD88F"/>
<path d="M8.34653 2.60228C10.1326 2.85448 11.8472 3.31315 13.4214 3.95975C13.4804 3.9835 13.5464 3.99715 13.6143 3.9996C13.6821 4.00205 13.7498 3.99324 13.812 3.97388L13.9005 3.94692C16.3857 3.1801 19.0693 2.78548 21.7818 2.78801C22.6947 2.78821 23.6066 2.83196 24.5111 2.91897C24.6243 2.92986 24.739 2.90859 24.8299 2.85984C24.9208 2.81108 24.9806 2.73883 24.996 2.65898C25.0115 2.57913 24.9813 2.49823 24.9122 2.43406C24.8431 2.3699 24.7407 2.32773 24.6276 2.31683C23.6848 2.22609 22.7345 2.18048 21.783 2.18031C18.9912 2.1777 16.2282 2.57821 13.664 3.35719C12.0597 2.71689 10.3213 2.26069 8.51394 2.00571C8.45842 1.99801 8.40131 1.9981 8.34584 2.00598C8.29037 2.01385 8.23764 2.02936 8.19067 2.05162C8.1437 2.07387 8.1034 2.10243 8.07207 2.13568C8.04075 2.16892 8.019 2.20619 8.00809 2.24536C7.99717 2.28453 7.99731 2.32484 8.00847 2.36397C8.01964 2.40311 8.04161 2.44031 8.07315 2.47345C8.10469 2.5066 8.14518 2.53503 8.1923 2.55714C8.23941 2.57924 8.29223 2.59458 8.34775 2.60228H8.34653Z" fill="#0DD88F"/>
<path d="M31.6184 29.7562C29.1775 29.4761 26.929 28.3118 25.3088 26.4892C25.2586 26.433 25.1943 26.3908 25.1224 26.3668C25.0504 26.3429 24.9734 26.338 24.8989 26.3528C24.8244 26.3675 24.7552 26.4013 24.6982 26.4507C24.6412 26.5002 24.5983 26.5636 24.574 26.6345C24.318 27.3824 24.0229 28.1166 23.69 28.8344C22.2386 31.9489 20.0433 34.1193 17.1637 35.2946C14.3839 36.4296 11.1975 36.4501 8.27948 35.2393C5.3615 34.0286 2.90014 31.5723 1.7142 28.6722C1.28108 27.6169 0.994387 26.5086 0.861879 25.3776C0.855363 25.3219 0.837789 25.2681 0.810184 25.2192C0.78258 25.1702 0.745475 25.1271 0.700984 25.0923C0.656493 25.0575 0.605499 25.0317 0.550895 25.0163C0.496291 25.001 0.439151 24.9964 0.382747 25.0028C0.326343 25.0092 0.271781 25.0266 0.222164 25.0538C0.172548 25.081 0.128844 25.1176 0.0935675 25.1615C0.0582914 25.2054 0.0321259 25.2557 0.0165609 25.3096C0.000995969 25.3635 -0.00365881 25.4198 0.002857 25.4755C0.144069 26.6824 0.449805 27.8649 0.91179 28.9911C2.18174 32.0978 4.8081 34.7271 7.94403 36.0255C11.0312 37.3071 14.4582 37.3221 17.493 36.0855C20.5809 34.8285 22.9296 32.5098 24.4754 29.1929C24.7189 28.662 24.9484 28.1203 25.1536 27.575C26.8691 29.2623 29.111 30.3301 31.5173 30.606C31.6312 30.6192 31.7458 30.5871 31.8358 30.517C31.9257 30.4468 31.9838 30.3442 31.9971 30.2319C32.0104 30.1195 31.9779 30.0065 31.9068 29.9178C31.8356 29.829 31.7317 29.7718 31.6178 29.7586L31.6184 29.7562Z" fill="#0DD88F"/>
<path d="M6.40219 3.7715C8.8276 3.91398 11.2548 4.66333 13.4221 5.93746C13.4912 5.97852 13.5722 6.00027 13.655 6C13.7241 5.99995 13.7922 5.98484 13.8535 5.95595C14.1309 5.82489 14.4149 5.70199 14.6959 5.59106C16.9456 4.7016 19.3751 4.24385 21.8307 4.24678C23.7354 4.24863 25.6284 4.5155 27.4432 5.03801C27.5513 5.06902 27.6685 5.05997 27.7692 5.01286C27.8698 4.96574 27.9456 4.88442 27.98 4.78678C28.0143 4.68914 28.0042 4.58318 27.9521 4.49221C27.9 4.40124 27.81 4.33272 27.702 4.30171C25.8035 3.75493 23.8232 3.47576 21.8307 3.47404C19.2581 3.47108 16.7129 3.95068 14.3559 4.88249C14.1291 4.97113 13.9022 5.06738 13.6772 5.16907C11.4413 3.89603 8.94974 3.14722 6.45694 3.00094C6.4008 2.9974 6.34445 3.00392 6.29111 3.02012C6.23776 3.03632 6.18848 3.06189 6.1461 3.09536C6.10373 3.12882 6.06909 3.16953 6.04417 3.21513C6.01925 3.26073 6.00454 3.31033 6.0009 3.36108C5.99725 3.41184 6.00475 3.46274 6.02293 3.51087C6.04112 3.559 6.06964 3.60341 6.10687 3.64155C6.1441 3.67969 6.18931 3.7108 6.23988 3.7331C6.29046 3.7554 6.34541 3.76845 6.40159 3.7715H6.40219Z" fill="#0DD88F"/>
<path d="M31.6247 28.0815C30.0837 27.9315 28.6202 27.3569 27.4094 26.4264C26.1986 25.4959 25.2919 24.2491 24.7978 22.8351C24.7186 22.6111 24.6134 22.3964 24.4841 22.1951C24.4383 22.1232 24.3706 22.0667 24.2901 22.0333C24.2097 22 24.1205 21.9914 24.0348 22.0088C23.9492 22.0262 23.8712 22.0687 23.8116 22.1305C23.752 22.1923 23.7137 22.2704 23.7019 22.354C23.4248 24.3493 22.8421 26.294 21.9728 28.1247C20.7348 30.722 18.8814 32.5263 16.4645 33.488C14.065 34.4416 11.4127 34.395 9.04897 33.4385C6.58729 32.4417 4.52115 30.4239 3.52214 28.0412C2.93 26.6253 2.66181 25.103 2.73584 23.5781C2.73881 23.5123 2.72523 23.4468 2.69626 23.3872C2.66729 23.3275 2.62379 23.2755 2.56946 23.2355C2.51512 23.1956 2.45156 23.1689 2.3842 23.1577C2.31683 23.1465 2.24766 23.1511 2.18256 23.1712C1.60071 23.3518 0.999294 23.4677 0.390072 23.5165C0.277878 23.5253 0.1739 23.5766 0.10101 23.6593C0.0281203 23.7419 -0.00771817 23.849 0.00139361 23.9571C0.0105054 24.0651 0.0638246 24.1653 0.1496 24.2355C0.235376 24.3057 0.346584 24.3402 0.458778 24.3314C0.936121 24.2936 1.40949 24.2185 1.87424 24.107C1.87703 25.5608 2.16848 27.0008 2.73285 28.3492C3.81551 30.9304 6.05253 33.115 8.71796 34.1941C11.3278 35.2508 14.2149 35.2686 16.7841 34.2459C19.4054 33.2031 21.4094 31.259 22.74 28.4683C23.4412 26.9931 23.9625 25.4446 24.2935 23.8538C24.9318 25.2344 25.9376 26.4279 27.209 27.3136C28.4804 28.1992 29.9722 28.7455 31.5333 28.897C31.5888 28.9024 31.6447 28.8972 31.6981 28.8817C31.7514 28.8663 31.8011 28.8408 31.8442 28.8068C31.8874 28.7729 31.9232 28.7311 31.9495 28.6838C31.9759 28.6365 31.9923 28.5847 31.9979 28.5313C32.0034 28.4779 31.998 28.424 31.982 28.3726C31.9659 28.3212 31.9395 28.2734 31.9042 28.2318C31.869 28.1903 31.8256 28.1558 31.7765 28.1304C31.7274 28.105 31.6736 28.0892 31.6182 28.0838L31.6247 28.0815Z" fill="#0DD88F"/>
<path d="M4.46873 4.97247C4.68477 4.95214 4.91709 4.93837 5.15787 4.93313C5.24235 4.93313 5.32563 4.93313 5.4065 4.93313C8.09426 4.93313 10.855 5.98888 13.1807 7.90496C13.2508 7.96295 13.3357 7.99603 13.4237 7.99966C13.5117 8.0033 13.5986 7.97733 13.6725 7.92529C14.1766 7.57097 14.7062 7.26134 15.256 6.99938C17.297 6.03043 19.5007 5.53185 21.728 5.5351C24.0977 5.5351 26.4421 6.08527 28.6948 7.16987C28.941 7.2879 29.1643 7.40266 29.3785 7.51938C29.4288 7.5469 29.4836 7.56338 29.5397 7.56789C29.5959 7.5724 29.6523 7.56485 29.7057 7.54567C29.7592 7.52648 29.8086 7.49605 29.8513 7.4561C29.8939 7.41615 29.9289 7.36746 29.9542 7.31282C29.9795 7.25819 29.9947 7.19866 29.9988 7.13765C30.003 7.07664 29.996 7.01534 29.9784 6.95725C29.9607 6.89916 29.9327 6.84542 29.896 6.79909C29.8592 6.75276 29.8144 6.71476 29.7641 6.68724C29.5372 6.56331 29.3007 6.44265 29.04 6.31806C26.6775 5.18034 24.2166 4.60329 21.7262 4.60329C19.3808 4.60009 17.0604 5.12547 14.9114 6.14625C14.4104 6.38424 13.9247 6.65875 13.4577 6.9679C11.0343 5.05182 8.18598 4 5.40408 4C5.31718 4 5.22908 4 5.13796 4C4.87788 4.0059 4.62623 4.02033 4.39089 4.04262C4.27765 4.05349 4.17304 4.1128 4.10005 4.20749C4.02705 4.30218 3.99166 4.4245 4.00166 4.54755C4.01167 4.67059 4.06624 4.78428 4.15338 4.8636C4.24052 4.94292 4.35308 4.98137 4.46632 4.9705L4.46873 4.97247Z" fill="#0DD88F"/>
<path d="M31.6211 26.7945C30.4146 26.6662 29.2699 26.1915 28.3227 25.4266C27.3755 24.6618 26.6654 23.639 26.2767 22.4793C25.8124 21.0927 24.6927 19.8873 23.2817 19.2555C23.0683 19.1597 22.8483 19.0795 22.6235 19.0155C22.5604 18.9979 22.4942 18.9952 22.43 19.0078C22.3657 19.0204 22.3053 19.0479 22.2534 19.0881C22.2015 19.1283 22.1596 19.1801 22.1309 19.2395C22.1023 19.2989 22.0877 19.3641 22.0883 19.4301C22.1197 22.3255 21.5192 25.1923 20.3295 27.8271C19.2806 30.1311 17.7358 31.7223 15.7373 32.5557C13.8168 33.3567 11.6417 33.3489 9.65868 32.5071C7.61264 31.6395 5.8972 29.8857 5.0707 27.8145C4.17106 25.5681 4.17878 23.0835 5.09626 20.4303C5.1283 20.3379 5.12781 20.2372 5.0949 20.1451C5.06198 20.053 4.99863 19.9752 4.91551 19.9247C4.83239 19.8742 4.73458 19.8541 4.63852 19.8679C4.54246 19.8816 4.45403 19.9283 4.38809 20.0001C3.33867 21.1423 1.91383 21.8608 0.378645 22.0221C0.323478 22.0279 0.269982 22.0446 0.221211 22.0713C0.17244 22.0979 0.129358 22.134 0.0944069 22.1775C0.0594562 22.2209 0.0333207 22.2709 0.0175116 22.3246C0.00170247 22.3782 -0.00347025 22.4345 0.00226899 22.4901C0.00800823 22.5458 0.0245589 22.5998 0.0509727 22.649C0.0773866 22.6982 0.113138 22.7417 0.156205 22.777C0.199272 22.8122 0.248804 22.8386 0.301968 22.8546C0.355132 22.8705 0.410884 22.8757 0.466051 22.8699C1.6975 22.7407 2.87519 22.2935 3.88564 21.5715C3.33919 23.8983 3.47298 26.0997 4.28699 28.1331C5.19615 30.4131 7.08165 32.3391 9.33164 33.2931C11.5317 34.2273 13.9422 34.2267 16.0602 33.3435C18.2603 32.4249 19.9567 30.6885 21.0965 28.1835C22.2541 25.6221 22.8779 22.8479 22.9291 20.0331L22.9386 20.0373C24.138 20.5773 25.0863 21.5907 25.4764 22.7553C25.9176 24.0693 26.7226 25.2282 27.7962 26.0948C28.8698 26.9614 30.167 27.4995 31.5343 27.6453C31.6457 27.657 31.7571 27.6234 31.844 27.5522C31.931 27.4809 31.9862 27.3777 31.9978 27.2652C32.0093 27.1528 31.976 27.0404 31.9054 26.9527C31.8348 26.865 31.7325 26.8092 31.6211 26.7975V26.7945Z" fill="#0DD88F"/>
<path d="M3.51761 7.05793C4.21697 6.89353 4.93343 6.80333 5.65379 6.78901C5.72219 6.78901 5.78766 6.78901 5.85723 6.78901C8.47454 6.78901 11.1854 7.85138 13.2947 9.70386C13.3692 9.7694 13.4665 9.80673 13.5681 9.80878C13.6697 9.81082 13.7686 9.77744 13.846 9.71495C14.5143 9.17726 15.2629 8.73647 16.0675 8.40696C17.8349 7.6736 19.7436 7.29599 21.6728 7.29802C23.7358 7.29802 25.7796 7.7172 27.7475 8.54447C28.6578 8.92987 29.5288 9.39389 30.3496 9.93064C30.3945 9.95995 30.445 9.98058 30.4984 9.99135C30.5517 10.0021 30.6067 10.0028 30.6603 9.99344C30.7139 9.98405 30.7651 9.96473 30.8108 9.93659C30.8565 9.90845 30.896 9.87205 30.9269 9.82945C30.9578 9.78685 30.9795 9.7389 30.9909 9.68833C31.0022 9.63776 31.003 9.58557 30.9931 9.53472C30.9832 9.48388 30.9628 9.43538 30.9331 9.39201C30.9035 9.34863 30.8651 9.31122 30.8202 9.28191C29.9573 8.7182 29.0414 8.23117 28.0842 7.82698C26.0094 6.9548 23.8522 6.51233 21.6728 6.51233C19.6296 6.50967 17.608 6.90917 15.736 7.68559C14.968 7.99944 14.2457 8.40569 13.587 8.89434C11.3654 7.05128 8.56808 6 5.85489 6C5.78182 6 5.70757 6 5.63332 6C4.85166 6.01554 4.07424 6.11335 3.31534 6.29165C3.26241 6.3041 3.21257 6.32632 3.16869 6.35704C3.12481 6.38775 3.08773 6.42637 3.05959 6.47067C3.03144 6.51498 3.01277 6.5641 3.00464 6.61525C2.99651 6.6664 2.99909 6.71857 3.01222 6.76877C3.02534 6.81898 3.04877 6.86624 3.08115 6.90786C3.11354 6.94948 3.15426 6.98464 3.20097 7.01133C3.24769 7.03803 3.29948 7.05574 3.35341 7.06345C3.40733 7.07116 3.46234 7.06872 3.51527 7.05627L3.51761 7.05793Z" fill="#0DD88F"/>
<path d="M31.638 24.6225C30.7811 24.5039 29.9736 24.1394 29.3076 23.5705C28.6415 23.0016 28.1435 22.2512 27.8703 21.4047C27.2592 19.5316 25.798 17.9126 23.9612 17.072C23.203 16.7158 22.3807 16.5277 21.5477 16.5199C21.241 16.5196 20.935 16.5484 20.6334 16.6058C20.5284 16.6257 20.4347 16.686 20.3712 16.7745C20.3076 16.863 20.279 16.973 20.291 17.0825C20.6331 20.369 20.1152 23.6901 18.7912 26.6999C17.9251 28.6435 16.6797 29.9736 15.0901 30.6515C13.5285 31.3141 11.8277 31.265 10.3101 30.6055C8.67175 29.8944 7.29796 28.4582 6.63574 26.7625C5.81777 24.6704 5.9426 22.0838 6.97755 19.666C7.24803 19.0341 7.58449 18.2488 7.2623 17.396C6.99598 16.688 6.29571 15.9849 5.48962 16.0002C4.6663 16.0199 4.10514 16.7978 3.70626 17.4727C3.34599 18.0816 2.85942 18.6005 2.28154 18.9921C1.70365 19.3836 1.04883 19.6381 0.364227 19.7371C0.309308 19.745 0.256429 19.7639 0.208603 19.7929C0.160778 19.8218 0.118955 19.8602 0.0855034 19.9059C0.052052 19.9515 0.0276337 20.0035 0.0136491 20.0588C-0.000335418 20.1142 -0.00361342 20.1719 0.00399792 20.2286C0.0116093 20.2852 0.0299526 20.3398 0.0580011 20.3892C0.0860496 20.4385 0.123243 20.4817 0.167459 20.5162C0.211674 20.5508 0.262044 20.576 0.315695 20.5904C0.369347 20.6048 0.425239 20.6082 0.480158 20.6004C1.28897 20.4834 2.06263 20.183 2.74553 19.7207C3.42844 19.2585 4.00362 18.6457 4.42972 17.9267C4.58131 17.669 5.0426 16.8837 5.50925 16.8733C5.90634 16.8622 6.32008 17.3027 6.47524 17.7132C6.65655 18.1954 6.48594 18.6617 6.20535 19.3181C5.07589 21.9501 4.95046 24.7839 5.85225 27.0925C6.5977 28.9987 8.1415 30.6141 9.98312 31.4129C11.7326 32.1718 13.664 32.2025 15.4117 31.4613C17.2052 30.6963 18.6004 29.2183 19.5586 27.068C20.8807 24.0998 21.4478 20.6875 21.1702 17.4095C21.9656 17.3365 22.7948 17.4941 23.6194 17.8708C25.2428 18.6138 26.5322 20.0396 27.0672 21.685C27.3899 22.6859 27.9785 23.5731 28.7659 24.2456C29.5533 24.918 30.5079 25.3488 31.5209 25.4888C31.6318 25.5044 31.7442 25.4739 31.8333 25.404C31.9224 25.3341 31.981 25.2306 31.9961 25.1161C32.0113 25.0016 31.9817 24.8856 31.914 24.7937C31.8463 24.7017 31.7459 24.6412 31.635 24.6256L31.638 24.6225Z" fill="#0DD88F"/>
<path d="M1.60844 9.52677C2.67899 9.06481 3.84299 8.81424 5.02537 8.79122C5.08594 8.79122 5.13985 8.79122 5.19619 8.79122C7.94924 8.79122 10.7647 10.0897 12.7297 12.2652C12.7697 12.3091 12.8096 12.3526 12.8478 12.3982C12.8885 12.4466 12.9409 12.4855 13.0008 12.5121C13.0607 12.5387 13.1265 12.5521 13.1931 12.5514C13.2596 12.5506 13.325 12.5357 13.3842 12.5078C13.4433 12.4798 13.4947 12.4397 13.5341 12.3904C14.2561 11.489 15.2677 10.7612 16.4586 10.2846C18.0736 9.63567 19.8175 9.30179 21.58 9.30404C23.4754 9.30404 25.3586 9.67933 27.1776 10.4177C28.6821 11.0335 30.0674 11.8706 31.279 12.896C31.3631 12.9669 31.4744 13.0042 31.5884 12.9996C31.7024 12.9951 31.8098 12.9491 31.8869 12.8718C31.964 12.7945 32.0045 12.6922 31.9996 12.5874C31.9947 12.4826 31.9446 12.3839 31.8605 12.313C30.5798 11.2302 29.1157 10.3463 27.5259 9.69604C25.5966 8.91038 23.5965 8.51226 21.58 8.51226C19.6993 8.5101 17.8384 8.86654 16.1151 9.55906C14.9869 10.0036 13.9831 10.6775 13.1791 11.5302C11.0645 9.31407 8.1031 8 5.19619 8C5.13198 8 5.06837 8 5.00416 8C3.70454 8.02629 2.42528 8.30225 1.24862 8.81016C1.14516 8.85446 1.06509 8.93473 1.02601 9.0333C0.986932 9.13187 0.992055 9.24068 1.04025 9.33578C1.08845 9.43089 1.17577 9.50449 1.283 9.54041C1.39024 9.57634 1.5086 9.57163 1.61206 9.52733L1.60844 9.52677Z" fill="#0DD88F"/>
<path d="M0.495599 19.3221C1.00638 19.2185 1.48969 19.015 1.91567 18.7241C2.34166 18.4333 2.70125 18.0613 2.97223 17.6312C3.2636 17.1679 4.33988 15.8406 5.42568 15.8171H5.46432C6.14458 15.8171 7.02464 16.3096 7.65495 17.0429C8.19012 17.6639 8.4577 18.3485 8.35364 18.8301C8.29002 19.1225 8.10032 19.5657 7.93204 19.9573C7.78755 20.2974 7.63473 20.6614 7.49202 21.0502C6.76776 23.0272 6.73922 24.8384 7.40699 26.433C8.01332 27.846 9.1681 28.9747 10.6251 29.5785C11.9738 30.1272 13.452 30.1398 14.756 29.6186C16.8563 28.7826 17.7292 26.9427 18.0146 26.3389C19.3516 23.5131 19.826 20.3785 19.3823 17.3021C19.365 17.1822 19.346 17.063 19.3258 16.9386C19.2663 16.5372 19.3395 17.0332 19.3002 16.7757C20.0105 16.4913 20.7723 16.3459 21.5414 16.348C22.4926 16.3553 23.4316 16.5553 24.2975 16.9351C26.3484 17.8124 27.9842 19.5067 28.6674 21.4647C28.8797 22.0697 29.2518 22.6109 29.7469 23.0351C30.2421 23.4593 30.8433 23.7518 31.4913 23.8838C31.601 23.9058 31.7153 23.885 31.809 23.8258C31.9027 23.7666 31.9682 23.6739 31.9911 23.5681C32.014 23.4624 31.9923 23.3522 31.9309 23.2618C31.8696 23.1714 31.7735 23.1083 31.6638 23.0862C31.1598 22.9835 30.6923 22.7561 30.3072 22.4262C29.9222 22.0963 29.6329 21.6755 29.4678 21.205C28.7079 19.0319 26.9031 17.1564 24.64 16.1886C23.6664 15.7621 22.6107 15.5381 21.5414 15.5309C20.6233 15.5287 19.7148 15.7103 18.8733 16.0642C18.6098 16.1788 18.3892 16.3199 18.4225 16.5951C18.4386 16.7281 18.4659 16.8996 18.4909 17.0584C18.5105 17.1817 18.529 17.2963 18.5456 17.4133C18.9682 20.3354 18.5181 23.313 17.2481 25.9972C16.996 26.5293 16.2277 28.1502 14.4349 28.8641C13.3426 29.3004 12.0873 29.2861 10.9546 28.8256C9.7038 28.3079 8.71255 27.3391 8.1925 26.1262C7.60381 24.7209 7.63651 23.1034 8.29061 21.3185C8.42559 20.9481 8.57425 20.5949 8.71459 20.2658C8.94174 19.736 9.10822 19.3352 9.18196 18.9941C9.34013 18.2642 9.01249 17.3393 8.30666 16.5206C7.51343 15.5969 6.3979 15 5.46611 15H5.41794C3.63405 15.0378 2.26641 17.184 2.25095 17.2069C2.04018 17.5417 1.7603 17.8312 1.42867 18.0573C1.09705 18.2835 0.720753 18.4415 0.323148 18.5216C0.21638 18.5466 0.123883 18.6107 0.065247 18.7002C0.00661119 18.7898 -0.0135491 18.8979 0.00902124 19.0016C0.0315916 19.1052 0.0951165 19.1964 0.186162 19.2557C0.277208 19.3149 0.388624 19.3377 0.49679 19.3192L0.495599 19.3221Z" fill="#0DD88F"/>
<path d="M28.6973 13.0622C28.5995 13.0087 28.4792 12.9886 28.363 13.0063C28.2467 13.024 28.144 13.0782 28.0774 13.1568C28.0108 13.2355 27.9858 13.3322 28.0078 13.4256C28.0299 13.5191 28.0973 13.6017 28.1951 13.6553C29.3266 14.2728 30.3415 15.0182 31.2086 15.8685C31.2457 15.9049 31.2913 15.9351 31.343 15.9574C31.3946 15.9797 31.4512 15.9935 31.5095 15.9982C31.5678 16.0029 31.6266 15.9983 31.6827 15.9847C31.7388 15.9711 31.791 15.9488 31.8364 15.9189C31.8817 15.8891 31.9193 15.8524 31.947 15.8109C31.9747 15.7694 31.992 15.7239 31.9978 15.677C32.0036 15.6302 31.9979 15.5828 31.981 15.5377C31.9641 15.4926 31.9363 15.4507 31.8992 15.4142C30.9777 14.5108 29.8994 13.7187 28.6973 13.0622V13.0622Z" fill="#0DD88F"/>
<path d="M16.8666 10.9763C15.6549 11.5039 14.6843 12.3263 14.0612 13.3583C14.0324 13.4058 14.0132 13.4586 14.0048 13.5134C13.9965 13.5683 13.999 13.6243 14.0123 13.6782C14.0256 13.7322 14.0494 13.7829 14.0824 13.8277C14.1153 13.8724 14.1568 13.9102 14.2044 13.939C14.2521 13.9677 14.3049 13.9868 14.3599 13.9952C14.4149 14.0035 14.4711 14.001 14.5251 13.9877C14.5791 13.9745 14.63 13.9507 14.6749 13.9178C14.7197 13.8849 14.7576 13.8435 14.7864 13.796C15.3194 12.9171 16.1593 12.2108 17.2068 11.754C20.0928 10.4993 23.3596 10.5493 26.4037 11.8952C26.4547 11.9177 26.5096 11.93 26.5653 11.9314C26.621 11.9327 26.6764 11.9231 26.7284 11.9031C26.7804 11.8831 26.828 11.853 26.8683 11.8147C26.9087 11.7763 26.9411 11.7304 26.9636 11.6796C26.9862 11.6288 26.9985 11.574 26.9999 11.5184C27.0012 11.4628 26.9916 11.4075 26.9715 11.3557C26.9515 11.3038 26.9214 11.2564 26.8829 11.2161C26.8445 11.1759 26.7985 11.1435 26.7475 11.121C23.4819 9.67931 19.9728 9.62512 16.8666 10.9763Z" fill="#0DD88F"/>
<path d="M1.42521 12.3636C1.52516 12.3617 1.62162 12.3285 1.69936 12.2691C3.01049 11.3302 4.42827 10.8392 5.91715 10.809C8.19113 10.7618 10.5567 11.8714 12.2288 13.7736C13.7954 15.5511 14.4455 17.6889 14.0153 19.6383C13.8586 20.3479 13.5724 21.0085 13.3199 21.5911L13.3133 21.6071C13.1784 21.9121 13.059 22.1875 12.9566 22.4657C12.92 22.5666 12.9272 22.6771 12.9765 22.773C13.0259 22.8689 13.1134 22.9425 13.2199 22.9778C13.2652 22.9923 13.3126 22.9998 13.3603 23C13.4492 23.0001 13.536 22.974 13.6085 22.9254C13.6809 22.8767 13.7355 22.8079 13.7646 22.7286C13.8592 22.4714 13.9737 22.2085 14.1045 21.9132L14.1123 21.895C14.3786 21.2799 14.6805 20.5829 14.8528 19.801C15.3349 17.6087 14.6208 15.2228 12.8873 13.2575C11.0484 11.1675 8.43877 9.94927 5.89786 10.0016C4.22159 10.0358 2.63029 10.586 1.16792 11.6375C1.10428 11.6844 1.05565 11.747 1.02746 11.8185C0.999275 11.8899 0.992629 11.9673 1.00825 12.0421C1.02816 12.1327 1.08044 12.2141 1.15636 12.2726C1.23227 12.3312 1.3272 12.3633 1.42521 12.3636Z" fill="#0DD88F"/>
<path d="M0.590004 17.2218C0.986249 17.0533 1.31856 16.7704 1.5411 16.412C1.55715 16.3868 3.13895 13.8617 5.40792 13.8141C6.61225 13.7871 7.97648 14.4828 8.96325 15.6292C9.84598 16.6512 10.2294 17.8039 10.0166 18.7903C9.92029 19.2313 9.70806 19.7251 9.49882 20.2149C9.36329 20.5343 9.22301 20.8647 9.09402 21.2185C8.51147 22.8128 8.47401 24.2368 8.98226 25.4527C9.41684 26.4653 10.2446 27.274 11.2887 27.7059C12.2326 28.089 13.2384 28.0942 14.12 27.7426C15.4408 27.2167 16.1036 26.0904 16.487 25.2881C17.6868 22.7462 18.1126 19.9275 17.7145 17.161C17.6985 17.0463 17.6795 16.927 17.6592 16.806C17.5998 16.4384 17.5404 16.0605 17.5754 15.8477C17.6206 15.5828 17.9672 15.1876 18.5438 14.945C20.5417 14.1048 22.8291 14.1502 24.9839 15.0729C27.4579 16.1304 29.4333 18.187 30.2673 20.5785C30.3608 20.8441 30.5103 21.0882 30.7063 21.2955C30.9023 21.5027 31.1406 21.6686 31.4062 21.7828C31.4569 21.8045 31.5116 21.8164 31.5671 21.8177C31.6226 21.819 31.6778 21.8097 31.7295 21.7904C31.7813 21.7712 31.8287 21.7422 31.8689 21.7053C31.909 21.6684 31.9413 21.6242 31.9638 21.5752C31.9863 21.5263 31.9985 21.4735 31.9999 21.42C32.0012 21.3665 31.9916 21.3132 31.9717 21.2633C31.9517 21.2133 31.9217 21.1676 31.8834 21.1289C31.8451 21.0901 31.7993 21.059 31.7486 21.0373C31.5891 20.9699 31.4461 20.871 31.3288 20.7469C31.2114 20.6228 31.1224 20.4763 31.0674 20.317C30.1585 17.7162 28.0126 15.4778 25.3263 14.3297C22.9527 13.3134 20.424 13.2675 18.2061 14.2C17.4167 14.5321 16.8419 15.1285 16.742 15.7175C16.6826 16.0553 16.7527 16.4814 16.8264 16.9414C16.8443 17.0503 16.8627 17.1604 16.8782 17.2734C17.2547 19.8862 16.8531 22.5483 15.7202 24.9491C15.3962 25.6264 14.8446 26.575 13.7972 26.9914C13.1189 27.262 12.3402 27.2506 11.6156 26.9564C10.778 26.6105 10.1141 25.9621 9.76574 25.1498C9.33596 24.1233 9.37815 22.8926 9.89056 21.4904C10.0124 21.156 10.1486 20.8354 10.2841 20.5154C10.5034 20.0033 10.7299 19.4739 10.8428 18.9589C11.1092 17.7265 10.6604 16.3237 9.61237 15.109C8.4657 13.7768 6.85121 12.9699 5.39187 13.0009C2.65746 13.0582 0.891984 15.877 0.819463 15.9945C0.686529 16.2084 0.488215 16.3773 0.251773 16.478C0.149297 16.5216 0.0689919 16.6028 0.0285252 16.7035C-0.0119415 16.8043 -0.00926209 16.9165 0.0359847 17.0153C0.0812315 17.1142 0.165342 17.1917 0.269797 17.2307C0.374253 17.2698 0.490504 17.2672 0.592979 17.2235L0.590004 17.2218Z" fill="#0DD88F"/>
<path d="M0.747723 14.502C1.52151 13.5419 3.14763 11.9236 5.34041 11.8741C7.0594 11.8325 8.92838 12.8158 10.2373 14.4329C11.4527 15.9339 11.9664 17.6964 11.6467 19.2682C11.5223 19.8794 11.2896 20.4581 11.0456 21.0717C10.9152 21.3987 10.7801 21.7366 10.6629 22.0788C10.2141 23.3836 10.1682 24.458 10.5242 25.3637C10.7881 26.0151 11.2891 26.5351 11.9205 26.8133C13.3026 27.4104 14.3097 26.5035 14.9341 25.1113C16.0015 22.7052 16.3799 20.037 16.0252 17.4183C16.0091 17.2991 15.9912 17.18 15.9734 17.0608C15.8912 16.5108 15.8133 15.9925 15.8918 15.4981C16.0704 14.3889 17.0227 13.5957 17.856 13.2235C23.163 10.8492 28.9182 14.2013 31.2074 18.6705C31.2612 18.7695 31.3506 18.8429 31.4564 18.8752C31.5623 18.9074 31.6762 18.8959 31.7739 18.8431C31.8716 18.7903 31.9453 18.7004 31.9794 18.5926C32.0134 18.4848 32.0051 18.3676 31.9561 18.266C30.6538 15.7249 28.4217 13.6213 25.8331 12.4926C23.069 11.288 20.1161 11.2654 17.5186 12.4278C16.1954 13.0187 15.2526 14.139 15.0585 15.3582C14.9579 15.9883 15.0496 16.6006 15.1383 17.1916C15.1555 17.3071 15.1728 17.4226 15.1889 17.5387C15.5214 19.9924 15.1669 22.4926 14.1669 24.7471C13.7449 25.6882 13.1806 26.4136 12.2491 26.0121C11.8247 25.8226 11.4879 25.4724 11.3087 25.0343C11.0337 24.3339 11.0837 23.4606 11.461 22.363C11.5711 22.041 11.7021 21.7134 11.8289 21.3968C12.0777 20.7741 12.3348 20.1299 12.4753 19.4412C12.8479 17.6078 12.2693 15.5794 10.8884 13.8737C9.41826 12.058 7.28381 10.9555 5.32197 11.0014C2.79349 11.0582 0.963196 12.869 0.0971552 13.9434C0.025644 14.032 -0.00863615 14.1462 0.00185658 14.2609C0.0123493 14.3755 0.066752 14.4811 0.153102 14.5545C0.239452 14.628 0.350668 14.6631 0.462292 14.6524C0.573917 14.6416 0.676808 14.5857 0.748319 14.4971L0.747723 14.502Z" fill="#0DD88F"/>
</svg>
