<svg width="11" height="14" viewBox="0 0 11 14" fill="none" xmlns="http://www.w3.org/2000/svg">
<path d="M2.84195 5.62613L0 10.9805L2.58075 10.7421L3.82982 13.0132L6.67177 7.65883L2.84195 5.62613Z" fill="#E95454"/>
<path d="M3.16752 11.454C3.24727 11.2828 3.16386 11.0781 2.99705 10.9894L2.83349 10.9023C2.66993 10.8092 2.60768 10.6021 2.69678 10.4344C2.7871 10.264 2.99949 10.1989 3.16996 10.2892L3.63216 10.5345C3.77497 10.6102 3.95399 10.5553 4.02764 10.4117L4.03903 10.3897C4.12366 10.2542 4.07361 10.0752 3.93284 10.0007L2.55031 9.26715C2.38187 9.17763 2.29927 8.9738 2.3778 8.8021C2.46446 8.61942 2.68335 8.5474 2.85953 8.64098L4.14197 9.32166C4.28477 9.39734 4.4638 9.34242 4.53947 9.19961L4.5468 9.18089L4.54883 9.17682C4.63061 9.02709 4.57324 8.83912 4.4223 8.75897L3.70296 8.37733C3.53452 8.28782 3.45192 8.08398 3.53167 7.91025C3.61752 7.7296 3.83722 7.65555 4.0134 7.74913L4.808 8.17105C4.95651 8.24998 5.1339 8.18407 5.2108 8.03434C5.21202 8.03231 5.21202 8.03231 5.21283 8.03027C5.21405 8.02824 5.21405 8.02824 5.21487 8.02621C5.29583 7.87851 5.25108 7.69461 5.10217 7.61609L4.2449 7.16121C4.07849 7.07292 3.9959 6.86908 4.07443 6.69739C4.16109 6.5147 4.37998 6.44269 4.55615 6.53627L6.67104 7.65881L3.82909 13.0132L3.04587 11.5895C3.09632 11.5554 3.14026 11.513 3.16752 11.454Z" fill="#ED6362"/>
<path d="M8.15819 5.62613L11.0001 10.9805L8.4194 10.7421L7.17032 13.0132L4.32837 7.65883L8.15819 5.62613Z" fill="#ED6362"/>
<path d="M7.83254 11.4541C7.75279 11.2828 7.8362 11.0781 8.00301 10.9894L8.16657 10.9024C8.33013 10.8092 8.39238 10.6021 8.30328 10.4345C8.21295 10.264 8.00057 10.1989 7.83009 10.2892L7.3679 10.5346C7.22509 10.6102 7.04606 10.5553 6.97242 10.4117L6.96103 10.3897C6.8764 10.2542 6.92645 10.0752 7.06722 10.0007L8.45016 9.26676C8.6186 9.17725 8.70119 8.97341 8.62267 8.80171C8.536 8.61903 8.31711 8.54701 8.14094 8.64059L6.8585 9.32128C6.71569 9.39696 6.53667 9.34203 6.46099 9.19922L6.45367 9.1805L6.45163 9.17643C6.36985 9.02671 6.42722 8.83874 6.57817 8.75858L7.29751 8.37695C7.46595 8.28743 7.54854 8.0836 7.4688 7.90986C7.38295 7.72922 7.16324 7.65517 6.98707 7.74875L6.19165 8.17148C6.04314 8.25041 5.86575 8.1845 5.78885 8.03477C5.78763 8.03274 5.78763 8.03274 5.78682 8.0307C5.7856 8.02867 5.7856 8.02867 5.78478 8.02663C5.70382 7.87894 5.74857 7.69504 5.89748 7.61651L6.75475 7.16164C6.92116 7.07335 7.00375 6.86951 6.92523 6.69781C6.83856 6.51513 6.61967 6.44312 6.4435 6.53669L4.32861 7.65924L7.17057 13.0136L7.95378 11.59C7.90374 11.5554 7.8598 11.5131 7.83254 11.4541Z" fill="#E95454"/>
<path d="M5.49999 9.49704C8.12252 9.49704 10.2485 7.37106 10.2485 4.74852C10.2485 2.12599 8.12252 0 5.49999 0C2.87745 0 0.751465 2.12599 0.751465 4.74852C0.751465 7.37106 2.87745 9.49704 5.49999 9.49704Z" fill="#FFCC5B"/>
<path d="M6.14414 4.20373H3.13496C2.90102 4.20373 2.70897 4.01169 2.70897 3.77774L2.71223 3.74845V3.74194C2.70898 3.49497 2.91037 3.29317 3.15775 3.29317H5.24334C5.5196 3.29317 5.76372 3.08851 5.77999 2.81185C5.79301 2.52256 5.56232 2.27845 5.27263 2.27845H3.06335C2.81964 2.27845 2.63737 2.07379 2.64062 1.82967C2.64062 1.82642 2.64062 1.82642 2.64062 1.82316C2.64062 1.81991 2.64062 1.81991 2.64062 1.81665C2.63737 1.57294 2.81924 1.36788 3.06335 1.36788H5.37516C5.64817 1.36788 5.89229 1.16323 5.90856 0.889815C5.92158 0.597279 5.69089 0.356415 5.4012 0.356415H3.70824C1.98191 1.06802 0.765381 2.76546 0.765381 4.74852C0.765381 6.73158 1.98191 8.42862 3.70864 9.13941H5.85811C6.13112 9.13941 6.37524 8.93476 6.39151 8.66134C6.40453 8.36881 6.17384 8.12835 5.88415 8.12835L3.43889 8.12794C3.15042 8.12794 2.9181 7.88667 2.93356 7.59454C2.9478 7.32113 3.19355 7.11566 3.46737 7.11566H4.41537C4.68797 7.10793 4.90808 6.88456 4.90808 6.60993C4.90808 6.33041 4.68064 6.10257 4.40072 6.10257H2.96367C2.72973 6.10257 2.53768 5.91094 2.54094 5.67658V5.64078C2.52466 5.41009 2.7102 5.21479 2.94089 5.21479H6.11484C6.3911 5.21479 6.63522 5.01014 6.6515 4.73672C6.66452 4.44459 6.43342 4.20373 6.14414 4.20373Z" fill="#FDBC4B"/>
<path d="M5.49994 8.13773C3.63081 8.13773 2.11035 6.61686 2.11035 4.74813C2.11035 2.8794 3.63081 1.35895 5.49994 1.35895C7.36908 1.35895 8.88954 2.87981 8.88954 4.74854C8.88954 6.61727 7.36908 8.13773 5.49994 8.13773Z" fill="#FFDB70"/>
</svg>
