<svg width="375" height="754" viewBox="0 0 375 754" fill="none" xmlns="http://www.w3.org/2000/svg">
<rect width="375" height="754" fill="#F6F5FC"/>
<path d="M359.571 538.619C359.045 538.619 358.619 539.045 358.619 539.571V547.893C354.875 546.924 352.235 543.18 353.055 538.993C353.636 536.026 356.026 533.636 358.993 533.055C363.18 532.235 366.924 534.875 367.893 538.619H359.571V538.619ZM369.035 540.524C369.608 540.524 370.052 540.021 369.988 539.452C369.443 534.614 365.261 530.862 360.249 531.004C355.284 531.144 351.145 535.283 351.004 540.248C350.861 545.26 354.614 549.443 359.452 549.988C360.021 550.052 360.524 549.608 360.524 549.035V540.524H369.035H369.035Z" fill="#DBD6FF" fill-opacity="0.73"/>
<path d="M363.381 549.005V543.381H369.006C368.553 546.27 366.27 548.553 363.381 549.005ZM370.048 541.476C369.84 541.476 369.242 541.476 369.095 541.476H362.429C361.903 541.476 361.477 541.903 361.477 542.428V549.095C361.477 549.242 361.477 549.839 361.477 550.047C361.477 550.573 361.807 551 362.333 551C367.112 551 371 547.112 371 542.333C371 541.807 370.574 541.476 370.048 541.476H370.048Z" fill="#DBD6FF" fill-opacity="0.73"/>
<path d="M42.2003 594.5H40.3997V590.9C40.3997 590.403 39.9969 590 39.4999 590H30.5003C30.0031 590 29.6004 590.403 29.6004 590.9V594.5H27.8006V588.2H42.2003V594.5V594.5ZM31.4001 591.8H38.6V597.2H31.4001V591.8ZM30.5003 582.8H39.4999V586.4H30.5003V582.8ZM43.1003 586.4H41.3005V581.9C41.3005 581.403 40.8968 581 40.3998 581H29.6004C29.1033 581 28.7006 581.403 28.7006 581.9V586.4H26.9007C26.4036 586.4 26 586.803 26 587.3V595.4C26 595.897 26.4036 596.3 26.9007 596.3H29.6004V598.1C29.6004 598.597 30.0033 599 30.5003 599H39.4999C39.997 599 40.3997 598.597 40.3997 598.1V596.3H43.1002C43.5973 596.3 44 595.897 44 595.4V587.3C44 586.803 43.5972 586.4 43.1002 586.4H43.1003Z" fill="#DBD6FF" fill-opacity="0.73"/>
<path d="M36.7999 593.6H33.1997C32.7033 593.6 32.2998 594.002 32.2998 594.5C32.2998 594.997 32.7034 595.4 33.1997 595.4H36.7999C37.2971 595.4 37.6998 594.997 37.6998 594.5C37.6998 594.002 37.2969 593.6 36.7999 593.6V593.6Z" fill="#DBD6FF" fill-opacity="0.73"/>
<path d="M244.9 740.2V733.784L252.294 735.428C252.362 735.443 252.431 735.45 252.5 735.45C252.569 735.45 252.638 735.443 252.706 735.428L260.1 733.784V740.2H244.9H244.9ZM249.65 729.75H260.1V731.838L252.5 733.527L244.9 731.838V729.75H249.65H249.65ZM250.6 726.901H254.4V727.85H250.6V726.901V726.901ZM261.05 727.85H256.3V725.951C256.3 725.426 255.875 725 255.35 725H249.65C249.125 725 248.7 725.426 248.7 725.951V727.85H243.95C243.425 727.85 243 728.276 243 728.8V741.151C243 741.675 243.425 742.1 243.95 742.1H261.05C261.575 742.1 262 741.675 262 741.151V728.8C262 728.276 261.575 727.85 261.05 727.85H261.05Z" fill="#DBD6FF" fill-opacity="0.73"/>
<path d="M280.107 203.835C280.45 203.707 280.697 203.384 280.697 202.997C280.697 202.5 280.294 202.097 279.797 202.097H277.997C277.88 202.097 277.763 202.121 277.653 202.167C277.433 202.258 277.257 202.433 277.166 202.653C277.121 202.763 277.097 202.88 277.097 202.997V204.797C277.097 205.295 277.5 205.697 277.997 205.697C278.384 205.697 278.707 205.45 278.834 205.107L284.561 210.834C284.737 211.01 284.968 211.098 285.197 211.098C285.428 211.098 285.658 211.01 285.834 210.834C286.185 210.483 286.185 209.913 285.834 209.561L280.107 203.835L280.107 203.835Z" fill="#DBD6FF" fill-opacity="0.73"/>
<path d="M277.996 199.397C279.982 199.397 281.597 201.012 281.597 202.997C281.597 203.494 282 203.897 282.497 203.897C282.994 203.897 283.397 203.494 283.397 202.997C283.397 200.019 280.974 197.597 277.996 197.597C275.018 197.597 272.596 200.019 272.596 202.997C272.596 205.975 275.018 208.398 277.996 208.398C278.493 208.398 278.896 207.995 278.896 207.498C278.896 207 278.493 206.598 277.996 206.598C276.011 206.598 274.396 204.983 274.396 202.997C274.396 201.012 276.011 199.397 277.996 199.397V199.397Z" fill="#DBD6FF" fill-opacity="0.73"/>
<path d="M286.457 199.936C286.456 199.93 286.456 199.925 286.455 199.919C286.409 199.794 286.351 199.675 286.3 199.553C286.251 199.433 286.209 199.312 286.154 199.193C286.148 199.18 286.139 199.167 286.133 199.154C286.047 198.972 285.95 198.798 285.853 198.623C285.808 198.541 285.768 198.456 285.72 198.376C285.615 198.199 285.498 198.031 285.381 197.862C285.33 197.789 285.284 197.711 285.23 197.639C285.122 197.491 285.002 197.353 284.885 197.212C284.812 197.126 284.744 197.036 284.669 196.953C284.569 196.843 284.461 196.741 284.356 196.636C284.252 196.532 284.151 196.424 284.042 196.325C283.957 196.249 283.867 196.181 283.781 196.108C283.64 195.991 283.502 195.872 283.354 195.763C283.283 195.71 283.205 195.664 283.131 195.612C282.963 195.496 282.795 195.38 282.619 195.274C282.536 195.225 282.448 195.183 282.363 195.137C282.192 195.041 282.02 194.946 281.841 194.861C281.827 194.855 281.815 194.846 281.801 194.84C281.678 194.783 281.552 194.739 281.428 194.688C281.31 194.639 281.196 194.584 281.075 194.54C281.061 194.535 281.047 194.531 281.033 194.526C280.849 194.46 280.664 194.408 280.477 194.354C280.38 194.326 280.284 194.292 280.186 194.267C280.004 194.221 279.819 194.189 279.635 194.154C279.528 194.134 279.422 194.108 279.315 194.092C279.157 194.069 278.999 194.058 278.84 194.043C278.703 194.03 278.568 194.011 278.431 194.005C278.308 193.998 278.184 194.003 278.061 194.002C277.889 194.001 277.717 193.997 277.545 194.005C277.453 194.01 277.362 194.023 277.27 194.031C277.068 194.047 276.866 194.064 276.665 194.094C276.59 194.105 276.516 194.124 276.441 194.138C276.227 194.175 276.013 194.215 275.801 194.269C275.714 194.291 275.629 194.321 275.542 194.346C275.348 194.402 275.153 194.457 274.962 194.526C274.947 194.531 274.933 194.534 274.918 194.539C274.793 194.585 274.675 194.642 274.553 194.692C274.433 194.742 274.311 194.784 274.193 194.84C274.179 194.846 274.167 194.854 274.153 194.861C273.971 194.946 273.797 195.044 273.622 195.14C273.541 195.186 273.455 195.226 273.375 195.274C273.199 195.379 273.03 195.496 272.862 195.613C272.788 195.664 272.71 195.71 272.638 195.763C272.491 195.872 272.352 195.992 272.212 196.109C272.125 196.182 272.035 196.25 271.952 196.325C271.842 196.424 271.74 196.533 271.635 196.638C271.531 196.742 271.423 196.843 271.324 196.952C271.249 197.036 271.18 197.127 271.108 197.213C270.99 197.353 270.871 197.492 270.763 197.639C270.709 197.711 270.663 197.789 270.612 197.863C270.495 198.031 270.379 198.199 270.274 198.375C270.224 198.458 270.183 198.546 270.136 198.63C270.041 198.802 269.945 198.973 269.861 199.152C269.854 199.166 269.846 199.179 269.839 199.193C269.781 199.317 269.737 199.445 269.685 199.57C269.637 199.687 269.582 199.799 269.539 199.919C269.534 199.932 269.531 199.946 269.526 199.96C269.456 200.153 269.401 200.349 269.345 200.546C269.32 200.631 269.29 200.716 269.268 200.802C269.216 201.005 269.179 201.21 269.142 201.416C269.127 201.5 269.106 201.585 269.093 201.67C269.065 201.854 269.051 202.04 269.035 202.225C269.025 202.334 269.01 202.443 269.004 202.552C268.997 202.703 269.001 202.853 269.002 203.004C269.002 203.15 268.997 203.295 269.004 203.44C269.01 203.555 269.026 203.669 269.036 203.783C269.052 203.963 269.066 204.143 269.092 204.323C269.106 204.413 269.128 204.503 269.145 204.593C269.181 204.793 269.217 204.992 269.267 205.19C269.291 205.281 269.322 205.371 269.348 205.462C269.403 205.653 269.457 205.845 269.525 206.033C269.53 206.047 269.533 206.061 269.538 206.075C269.582 206.195 269.638 206.309 269.686 206.426C269.738 206.551 269.782 206.678 269.839 206.801C269.846 206.816 269.854 206.829 269.861 206.843C269.944 207.019 270.039 207.188 270.132 207.358C270.18 207.444 270.223 207.535 270.274 207.62C270.379 207.795 270.494 207.962 270.61 208.13C270.662 208.204 270.709 208.283 270.763 208.355C270.872 208.504 270.992 208.644 271.111 208.785C271.182 208.87 271.249 208.959 271.324 209.041C271.426 209.154 271.537 209.259 271.646 209.367C271.747 209.468 271.844 209.572 271.95 209.668C272.04 209.749 272.137 209.823 272.231 209.901C272.364 210.012 272.495 210.125 272.635 210.229C272.718 210.29 272.806 210.343 272.89 210.401C273.048 210.51 273.205 210.619 273.371 210.718C273.466 210.775 273.567 210.823 273.664 210.877C273.824 210.964 273.982 211.053 274.147 211.131C274.163 211.139 274.177 211.148 274.193 211.155C274.281 211.196 274.373 211.225 274.462 211.263C274.613 211.328 274.762 211.398 274.918 211.455C274.93 211.459 274.942 211.457 274.955 211.461C275.939 211.817 276.962 212.002 277.991 212.002C279.029 212.002 280.071 211.82 281.075 211.455C281.542 211.285 281.783 210.768 281.613 210.302C281.443 209.834 280.926 209.594 280.459 209.764C278.76 210.382 276.93 210.335 275.268 209.651C275.148 209.602 275.027 209.555 274.911 209.501C274.798 209.447 274.69 209.385 274.58 209.326C274.476 209.27 274.371 209.217 274.271 209.157C274.184 209.105 274.103 209.046 274.019 208.991C273.9 208.912 273.779 208.834 273.666 208.749C273.615 208.71 273.567 208.667 273.516 208.627C273.377 208.516 273.238 208.403 273.108 208.283C273.089 208.266 273.072 208.247 273.054 208.23C271.205 206.478 270.366 203.815 271.013 201.246C271.02 201.216 271.031 201.188 271.039 201.158C271.091 200.96 271.15 200.762 271.221 200.565C271.257 200.465 271.302 200.367 271.343 200.267C271.39 200.151 271.435 200.033 271.489 199.92C271.554 199.781 271.629 199.647 271.703 199.514C271.742 199.442 271.777 199.368 271.819 199.298C271.901 199.161 271.992 199.03 272.082 198.899C272.126 198.837 272.165 198.771 272.21 198.709C272.296 198.593 272.39 198.485 272.482 198.375C272.541 198.304 272.597 198.229 272.659 198.161C272.738 198.074 272.824 197.993 272.907 197.91C272.991 197.826 273.072 197.739 273.161 197.659C273.228 197.598 273.301 197.544 273.371 197.485C273.482 197.392 273.592 197.297 273.709 197.211C273.769 197.167 273.832 197.129 273.893 197.086C274.026 196.995 274.159 196.902 274.299 196.819C274.366 196.779 274.436 196.746 274.504 196.708C274.641 196.632 274.778 196.556 274.921 196.488C275.025 196.44 275.134 196.398 275.241 196.354C275.35 196.308 275.459 196.26 275.571 196.219C275.71 196.17 275.851 196.13 275.992 196.089C276.077 196.064 276.161 196.035 276.247 196.013C276.39 195.977 276.534 195.952 276.678 195.924C276.766 195.908 276.853 195.887 276.942 195.873C277.068 195.854 277.196 195.846 277.323 195.833C277.431 195.823 277.539 195.809 277.648 195.803C277.748 195.798 277.848 195.802 277.948 195.802C278.085 195.801 278.221 195.797 278.357 195.804C278.431 195.807 278.503 195.818 278.576 195.824C278.738 195.838 278.9 195.85 279.063 195.875C279.119 195.883 279.174 195.898 279.23 195.907C279.406 195.938 279.581 195.971 279.756 196.016C279.814 196.03 279.872 196.051 279.931 196.067C280.097 196.114 280.264 196.163 280.428 196.222C280.528 196.258 280.626 196.302 280.724 196.342C280.841 196.39 280.96 196.436 281.074 196.489C281.213 196.555 281.346 196.63 281.48 196.703C281.551 196.743 281.625 196.778 281.695 196.82C281.833 196.902 281.964 196.993 282.096 197.084C282.158 197.127 282.223 197.166 282.284 197.211C282.401 197.297 282.51 197.392 282.622 197.485C282.691 197.543 282.765 197.598 282.832 197.659C282.92 197.739 283.001 197.825 283.085 197.909C283.169 197.993 283.255 198.073 283.334 198.161C283.396 198.229 283.45 198.302 283.509 198.372C283.602 198.483 283.696 198.593 283.783 198.71C283.827 198.771 283.867 198.836 283.91 198.898C284 199.029 284.091 199.16 284.174 199.298C284.215 199.368 284.251 199.442 284.29 199.514C284.364 199.647 284.439 199.781 284.504 199.92C284.557 200.033 284.603 200.151 284.65 200.267C285.334 201.93 285.382 203.759 284.763 205.46C284.593 205.927 284.834 206.444 285.301 206.613C285.768 206.783 286.284 206.543 286.454 206.075C287.185 204.069 287.178 201.918 286.457 199.936L286.457 199.936Z" fill="#DBD6FF" fill-opacity="0.73"/>
<path d="M177.661 186.379L166.221 186.633L165.991 176.271L166.22 176.49C166.372 176.635 166.569 176.706 166.764 176.701C166.959 176.697 167.153 176.618 167.298 176.466C167.589 176.161 167.579 175.679 167.274 175.387L165.715 173.896C165.708 173.889 165.698 173.887 165.691 173.881C165.624 173.821 165.55 173.77 165.464 173.736C165.463 173.736 165.462 173.736 165.461 173.735C165.455 173.733 165.448 173.733 165.441 173.731C165.361 173.703 165.28 173.69 165.199 173.689C165.173 173.689 165.149 173.692 165.123 173.695C165.057 173.7 164.995 173.714 164.933 173.736C164.908 173.745 164.884 173.752 164.86 173.764C164.779 173.803 164.701 173.852 164.636 173.92L163.145 175.479C162.854 175.784 162.864 176.266 163.169 176.557C163.473 176.849 163.956 176.838 164.247 176.534L164.466 176.305L164.713 187.43C164.722 187.851 165.071 188.185 165.493 188.175L177.695 187.904C178.117 187.895 178.45 187.546 178.441 187.125C178.432 186.703 178.083 186.37 177.662 186.379L177.661 186.379Z" fill="#DBD6FF" fill-opacity="0.73"/>
<path d="M167.914 184.083C168.067 184.228 168.264 184.299 168.459 184.294C168.654 184.29 168.847 184.211 168.993 184.059L170.798 182.172L172.592 183.311C172.768 183.423 172.983 183.458 173.185 183.408C173.387 183.358 173.56 183.226 173.664 183.045L175.867 179.181C176.076 178.815 175.948 178.349 175.582 178.14C175.216 177.931 174.751 178.059 174.541 178.425L172.734 181.594L171.088 180.549C170.78 180.354 170.379 180.402 170.128 180.665L167.891 183.004C167.599 183.309 167.61 183.791 167.915 184.083L167.914 184.083Z" fill="#DBD6FF" fill-opacity="0.73"/>
<path d="M373.98 137.43C373.123 137.43 372.38 136.801 371.694 136.115C371.179 135.658 370.608 135.143 370.207 135.143C369.807 135.143 369.236 135.658 368.721 136.115C368.035 136.744 367.292 137.43 366.435 137.43C365.577 137.43 364.834 136.801 364.148 136.115C363.634 135.658 363.062 135.143 362.662 135.143C362.262 135.143 361.69 135.658 361.176 136.115C360.49 136.744 359.747 137.43 358.89 137.43C358.032 137.43 357.289 136.801 356.603 136.115C356.089 135.658 355.517 135.143 355.117 135.143C354.717 135.143 354.145 135.658 353.631 136.115C352.945 136.744 352.202 137.43 351.344 137.43C350.487 137.43 349.744 136.801 349.058 136.115C348.543 135.658 347.972 135.143 347.572 135.143C347.229 135.143 347 134.915 347 134.572C347 134.229 347.229 134 347.572 134C348.429 134 349.172 134.629 349.858 135.315C350.373 135.772 350.944 136.286 351.344 136.286C351.744 136.286 352.316 135.772 352.83 135.315C353.516 134.686 354.259 134 355.117 134C355.974 134 356.717 134.629 357.403 135.315C357.918 135.772 358.489 136.286 358.89 136.286C359.29 136.286 359.861 135.772 360.376 135.315C361.062 134.686 361.805 134 362.662 134C363.52 134 364.263 134.629 364.949 135.315C365.463 135.772 366.035 136.286 366.435 136.286C366.835 136.286 367.407 135.772 367.921 135.315C368.607 134.686 369.35 134 370.207 134C371.065 134 371.808 134.629 372.494 135.315C373.008 135.772 373.58 136.286 373.98 136.286C374.323 136.286 374.552 136.515 374.552 136.858C374.552 137.201 374.323 137.43 373.98 137.43Z" fill="#DBD6FF" fill-opacity="0.73"/>
<path d="M260.98 364.43C260.123 364.43 259.38 363.801 258.694 363.115C258.179 362.658 257.608 362.143 257.207 362.143C256.807 362.143 256.236 362.658 255.721 363.115C255.035 363.744 254.292 364.43 253.435 364.43C252.577 364.43 251.834 363.801 251.148 363.115C250.634 362.658 250.062 362.143 249.662 362.143C249.262 362.143 248.69 362.658 248.176 363.115C247.49 363.744 246.747 364.43 245.89 364.43C245.032 364.43 244.289 363.801 243.603 363.115C243.089 362.658 242.517 362.143 242.117 362.143C241.717 362.143 241.145 362.658 240.631 363.115C239.945 363.744 239.202 364.43 238.344 364.43C237.487 364.43 236.744 363.801 236.058 363.115C235.543 362.658 234.972 362.143 234.572 362.143C234.229 362.143 234 361.915 234 361.572C234 361.229 234.229 361 234.572 361C235.429 361 236.172 361.629 236.858 362.315C237.373 362.772 237.944 363.286 238.344 363.286C238.744 363.286 239.316 362.772 239.83 362.315C240.516 361.686 241.259 361 242.117 361C242.974 361 243.717 361.629 244.403 362.315C244.918 362.772 245.489 363.286 245.89 363.286C246.29 363.286 246.861 362.772 247.376 362.315C248.062 361.686 248.805 361 249.662 361C250.52 361 251.263 361.629 251.949 362.315C252.463 362.772 253.035 363.286 253.435 363.286C253.835 363.286 254.407 362.772 254.921 362.315C255.607 361.686 256.35 361 257.207 361C258.065 361 258.808 361.629 259.494 362.315C260.008 362.772 260.58 363.286 260.98 363.286C261.323 363.286 261.552 363.515 261.552 363.858C261.552 364.201 261.323 364.43 260.98 364.43Z" fill="#DBD6FF" fill-opacity="0.73"/>
<path d="M212.744 140.315C212.572 140.315 212.458 140.258 212.344 140.144L210.171 137.972C209.943 137.743 209.943 137.4 210.171 137.171C210.4 136.943 210.743 136.943 210.972 137.171L213.144 139.344C213.373 139.572 213.373 139.915 213.144 140.144C213.03 140.258 212.915 140.315 212.744 140.315Z" fill="#DBD6FF" fill-opacity="0.73"/>
<path d="M210.572 140.315C210.4 140.315 210.286 140.258 210.171 140.144C209.943 139.915 209.943 139.572 210.171 139.344L212.344 137.171C212.572 136.943 212.915 136.943 213.144 137.171C213.373 137.4 213.373 137.743 213.144 137.972L210.972 140.144C210.857 140.258 210.686 140.315 210.572 140.315Z" fill="#DBD6FF" fill-opacity="0.73"/>
<path d="M269.744 68.3154C269.572 68.3154 269.458 68.2582 269.344 68.1439L267.171 65.9717C266.943 65.7431 266.943 65.4001 267.171 65.1715C267.4 64.9428 267.743 64.9428 267.972 65.1715L270.144 67.3436C270.373 67.5723 270.373 67.9152 270.144 68.1439C270.03 68.2582 269.915 68.3154 269.744 68.3154Z" fill="#DBD6FF" fill-opacity="0.73"/>
<path d="M267.572 68.3154C267.4 68.3154 267.286 68.2582 267.171 68.1439C266.943 67.9152 266.943 67.5723 267.171 67.3436L269.344 65.1715C269.572 64.9428 269.915 64.9428 270.144 65.1715C270.373 65.4001 270.373 65.7431 270.144 65.9717L267.972 68.1439C267.857 68.2582 267.686 68.3154 267.572 68.3154Z" fill="#DBD6FF" fill-opacity="0.73"/>
<path d="M312.58 19.7148C312.295 19.7148 312.009 19.4862 312.009 19.2004C311.952 18.9146 312.18 18.6288 312.523 18.5716C312.866 18.5716 313.095 18.7431 313.152 19.0861C313.209 19.3719 312.98 19.6577 312.58 19.7148C312.58 19.7148 312.638 19.7148 312.58 19.7148Z" fill="#DBD6FF" fill-opacity="0.73"/>
<path d="M318.754 19.2004C318.468 19.2004 318.183 18.9718 318.183 18.6288C318.183 18.2858 318.411 18.0572 318.697 18.0572C318.983 18.0572 319.269 18.2858 319.269 18.6288C319.326 18.9718 319.097 19.2004 318.754 19.2004Z" fill="#DBD6FF" fill-opacity="0.73"/>
<path d="M324.927 19.1432C324.584 19.1432 324.355 18.8574 324.355 18.5716C324.355 18.2858 324.584 18 324.927 18C325.27 18 325.499 18.2858 325.499 18.5716C325.499 18.8574 325.213 19.1432 324.927 19.1432Z" fill="#DBD6FF" fill-opacity="0.73"/>
<path d="M331.1 19.3719C331.043 19.3719 331.043 19.3719 331.1 19.3719C330.757 19.3719 330.472 19.0861 330.529 18.7431C330.529 18.4001 330.815 18.1715 331.1 18.2287C331.443 18.2287 331.672 18.5145 331.615 18.8574C331.615 19.1432 331.386 19.3719 331.1 19.3719Z" fill="#DBD6FF" fill-opacity="0.73"/>
<path d="M337.217 20.0007H337.159C336.874 19.9435 336.588 19.6577 336.645 19.3719C336.702 19.0861 336.931 18.8574 337.274 18.8574C337.56 18.9146 337.788 19.2004 337.788 19.4862C337.731 19.772 337.502 20.0007 337.217 20.0007Z" fill="#DBD6FF" fill-opacity="0.73"/>
<path d="M343.333 20.9724C343.276 20.9724 343.276 20.9724 343.219 20.9724C342.933 20.9152 342.705 20.6294 342.762 20.2865C342.819 20.0007 343.105 19.772 343.448 19.8292C343.733 19.8863 343.962 20.1721 343.905 20.5151C343.848 20.8009 343.562 20.9724 343.333 20.9724Z" fill="#DBD6FF" fill-opacity="0.73"/>
<path d="M349.335 22.2871C349.278 22.2871 349.221 22.2871 349.221 22.2871C348.935 22.2299 348.707 21.887 348.764 21.6012C348.821 21.3154 349.107 21.0867 349.45 21.201C349.735 21.2582 349.964 21.6012 349.85 21.887C349.85 22.1156 349.621 22.2871 349.335 22.2871Z" fill="#DBD6FF" fill-opacity="0.73"/>
<path d="M355.28 24.0019C355.223 24.0019 355.166 24.0019 355.108 24.0019C354.823 23.8876 354.651 23.6018 354.708 23.2588C354.823 22.973 355.108 22.8016 355.394 22.8587C355.68 22.973 355.851 23.2588 355.794 23.5446C355.737 23.8305 355.508 24.0019 355.28 24.0019Z" fill="#DBD6FF" fill-opacity="0.73"/>
<path d="M23.1499 323.3H9.84978C9.32609 323.3 8.89985 322.945 8.89985 322.509V314.75H23.1499V316.65H19.3498C18.8252 316.65 18.3997 317.075 18.3997 317.6V320.45C18.3997 320.975 18.8252 321.4 19.3498 321.4H23.1499V323.3V323.3ZM9.73104 311.9H21.2498V312.85H8.89985C8.89985 312.822 8.88622 312.798 8.88385 312.771C8.88622 312.743 8.89985 312.72 8.89985 312.692C8.89985 312.255 9.27281 311.9 9.73104 311.9V311.9ZM20.2999 318.55H24.1V319.5H20.2999V318.55V318.55ZM25.0499 316.65V313.8C25.0499 313.275 24.6246 312.85 24.1 312.85H23.15V310.95C23.15 310.425 22.7247 310 22.1999 310H9.73122C8.22505 310 7 311.207 7 312.692C7 312.72 7.01364 312.743 7.016 312.771C7.01364 312.798 7 312.822 7 312.85V322.509C7 323.993 8.27833 325.2 9.84996 325.2H24.1C24.6246 325.2 25.0499 324.775 25.0499 324.25V321.4C25.5747 321.4 26 320.975 26 320.45V317.6C26 317.075 25.5747 316.65 25.0499 316.65V316.65Z" fill="#DBD6FF" fill-opacity="0.73"/>
<path d="M80.7931 138C80.431 138 80.1896 137.879 79.9483 137.638L75.3621 133.052C74.8793 132.569 74.8793 131.845 75.3621 131.362C75.8448 130.879 76.569 130.879 77.0518 131.362L81.6379 135.948C82.1207 136.431 82.1207 137.155 81.6379 137.638C81.3966 137.879 81.1552 138 80.7931 138Z" fill="#E3DEFE"/>
<path d="M76.2069 138C75.8448 138 75.6034 137.879 75.3621 137.638C74.8793 137.155 74.8793 136.431 75.3621 135.948L79.9483 131.362C80.431 130.879 81.1552 130.879 81.6379 131.362C82.1207 131.845 82.1207 132.569 81.6379 133.052L77.0518 137.638C76.8104 137.879 76.4483 138 76.2069 138Z" fill="#E3DEFE"/>
<path d="M15.7931 491C15.431 491 15.1896 490.879 14.9483 490.638L10.3621 486.052C9.87931 485.569 9.87931 484.845 10.3621 484.362C10.8448 483.879 11.569 483.879 12.0518 484.362L16.6379 488.948C17.1207 489.431 17.1207 490.155 16.6379 490.638C16.3966 490.879 16.1552 491 15.7931 491Z" fill="#E3DEFE"/>
<path d="M11.2069 491C10.8448 491 10.6034 490.879 10.3621 490.638C9.87931 490.155 9.87931 489.431 10.3621 488.948L14.9483 484.362C15.431 483.879 16.1552 483.879 16.6379 484.362C17.1207 484.845 17.1207 485.569 16.6379 486.052L12.0518 490.638C11.8104 490.879 11.4483 491 11.2069 491Z" fill="#E3DEFE"/>
<path d="M278.793 475C278.431 475 278.19 474.879 277.948 474.638L273.362 470.052C272.879 469.569 272.879 468.845 273.362 468.362C273.845 467.879 274.569 467.879 275.052 468.362L279.638 472.948C280.121 473.431 280.121 474.155 279.638 474.638C279.397 474.879 279.155 475 278.793 475Z" fill="#E3DEFE"/>
<path d="M274.207 475C273.845 475 273.603 474.879 273.362 474.638C272.879 474.155 272.879 473.431 273.362 472.948L277.948 468.362C278.431 467.879 279.155 467.879 279.638 468.362C280.121 468.845 280.121 469.569 279.638 470.052L275.052 474.638C274.81 474.879 274.448 475 274.207 475Z" fill="#E3DEFE"/>
<path d="M336.793 138C336.431 138 336.19 137.879 335.948 137.638L331.362 133.052C330.879 132.569 330.879 131.845 331.362 131.362C331.845 130.879 332.569 130.879 333.052 131.362L337.638 135.948C338.121 136.431 338.121 137.155 337.638 137.638C337.397 137.879 337.155 138 336.793 138Z" fill="#E3DEFE"/>
<path d="M332.207 138C331.845 138 331.603 137.879 331.362 137.638C330.879 137.155 330.879 136.431 331.362 135.948L335.948 131.362C336.431 130.879 337.155 130.879 337.638 131.362C338.121 131.845 338.121 132.569 337.638 133.052L333.052 137.638C332.81 137.879 332.448 138 332.207 138Z" fill="#E3DEFE"/>
<path d="M340.793 670C340.431 670 340.19 669.879 339.948 669.638L335.362 665.052C334.879 664.569 334.879 663.845 335.362 663.362C335.845 662.879 336.569 662.879 337.052 663.362L341.638 667.948C342.121 668.431 342.121 669.155 341.638 669.638C341.397 669.879 341.155 670 340.793 670Z" fill="#E3DEFE"/>
<path d="M336.207 670C335.845 670 335.603 669.879 335.362 669.638C334.879 669.155 334.879 668.431 335.362 667.948L339.948 663.362C340.431 662.879 341.155 662.879 341.638 663.362C342.121 663.845 342.121 664.569 341.638 665.052L337.052 669.638C336.81 669.879 336.448 670 336.207 670Z" fill="#E3DEFE"/>
<path d="M374.5 368C374.04 368 373.734 367.847 373.427 367.54L365.46 359.573C364.847 358.96 364.847 358.04 365.46 357.427L373.427 349.46C374.04 348.847 374.96 348.847 375.573 349.46L383.54 357.427C384.153 358.04 384.153 358.96 383.54 359.573L375.573 367.54C375.266 367.847 374.96 368 374.5 368ZM368.677 358.5L374.5 364.323L380.323 358.5L374.5 352.677L368.677 358.5Z" fill="#E3DEFE"/>
<path d="M1.50003 661C1.04035 661 0.733907 660.847 0.427455 660.54L-7.54032 652.573C-8.15323 651.96 -8.15323 651.04 -7.54032 650.427L0.427455 642.46C1.04036 641.847 1.95971 641.847 2.57261 642.46L10.5404 650.427C11.1533 651.04 11.1533 651.96 10.5404 652.573L2.57261 660.54C2.26616 660.847 1.95971 661 1.50003 661ZM-4.32256 651.5L1.50003 657.323L7.32263 651.5L1.50003 645.677L-4.32256 651.5Z" fill="#E3DEFE"/>
<path d="M74.9801 255.43C74.1227 255.43 73.3796 254.801 72.6936 254.115C72.1792 253.658 71.6076 253.143 71.2075 253.143C70.8073 253.143 70.2357 253.658 69.7213 254.115C69.0353 254.744 68.2922 255.43 67.4348 255.43C66.5774 255.43 65.8343 254.801 65.1484 254.115C64.6339 253.658 64.0623 253.143 63.6622 253.143C63.262 253.143 62.6904 253.658 62.176 254.115C61.49 254.744 60.747 255.43 59.8895 255.43C59.0321 255.43 58.289 254.801 57.6031 254.115C57.0886 253.658 56.517 253.143 56.1169 253.143C55.7168 253.143 55.1452 253.658 54.6307 254.115C53.9448 254.744 53.2017 255.43 52.3443 255.43C51.4868 255.43 50.7437 254.801 50.0578 254.115C49.5434 253.658 48.9717 253.143 48.5716 253.143C48.2286 253.143 48 252.915 48 252.572C48 252.229 48.2286 252 48.5716 252C49.429 252 50.1721 252.629 50.8581 253.315C51.3725 253.772 51.9441 254.286 52.3443 254.286C52.7444 254.286 53.316 253.772 53.8304 253.315C54.5164 252.686 55.2595 252 56.1169 252C56.9743 252 57.7174 252.629 58.4033 253.315C58.9178 253.772 59.4894 254.286 59.8895 254.286C60.2897 254.286 60.8613 253.772 61.3757 253.315C62.0617 252.686 62.8047 252 63.6622 252C64.5196 252 65.2627 252.629 65.9486 253.315C66.4631 253.772 67.0347 254.286 67.4348 254.286C67.8349 254.286 68.4066 253.772 68.921 253.315C69.6069 252.686 70.35 252 71.2075 252C72.0649 252 72.808 252.629 73.4939 253.315C74.0084 253.772 74.58 254.286 74.9801 254.286C75.3231 254.286 75.5517 254.515 75.5517 254.858C75.5517 255.201 75.3231 255.43 74.9801 255.43Z" fill="#DBD6FF" fill-opacity="0.73"/>
</svg>
