<svg width="51" height="50" viewBox="0 0 51 50" fill="none" xmlns="http://www.w3.org/2000/svg">
<path d="M48.9753 0.00436385C39.2149 -0.170636 28.0837 4.93145 21.0378 12.846C14.3045 12.9731 7.74824 15.7335 2.92116 20.5606C2.63991 20.8377 2.53991 21.2523 2.66283 21.6273C2.78783 22.0044 3.11283 22.2773 3.50449 22.3335L11.5337 23.4835L10.542 24.5939C10.1732 25.0064 10.192 25.6335 10.5837 26.0252L23.9732 39.4148C24.1753 39.6169 24.442 39.7189 24.7107 39.7189C24.9587 39.7189 25.2066 39.6314 25.4045 39.4544L26.5149 38.4627L27.6649 46.4919C27.7212 46.8835 28.0295 47.171 28.4024 47.296C28.4982 47.3273 28.5982 47.3419 28.7003 47.3419C28.9962 47.3419 29.2982 47.2127 29.5066 47.0064C34.267 42.246 37.0274 35.6898 37.1545 28.9564C45.0774 21.896 50.2211 10.7689 49.9941 1.02103C49.9795 0.466864 49.5316 0.0189472 48.9753 0.00436385ZM39.3753 17.9877C38.3607 19.0023 37.0274 19.5106 35.692 19.5106C34.3566 19.5106 33.0232 19.0023 32.0087 17.9877C29.9795 15.9564 29.9795 12.6523 32.0087 10.621C34.0399 8.58978 37.3441 8.58978 39.3753 10.621C41.4066 12.6523 41.4066 15.9585 39.3753 17.9877Z" fill="#A83CA8"/>
<path d="M5.67512 35.2169C3.44595 37.446 0.385536 47.5169 0.0438696 48.6564C-0.0665471 49.0231 0.0355363 49.421 0.304286 49.6919C0.504286 49.8919 0.76887 49.9981 1.04179 49.9981C1.14179 49.9981 1.24179 49.9835 1.34179 49.9544C2.48137 49.6127 12.5522 46.5523 14.7814 44.3231C17.2918 41.8127 17.2918 37.7273 14.7814 35.2169C12.2689 32.7065 8.18554 32.7085 5.67512 35.2169Z" fill="#A83CA8"/>
</svg>
