<svg width="13" height="18" viewBox="0 0 13 18" fill="none" xmlns="http://www.w3.org/2000/svg">
<path d="M11.5101 6.07647H10.6562V4.18945C10.6562 3.07834 10.2149 2.01274 9.42919 1.22706C8.64351 0.441388 7.57791 0 6.4668 0C5.35568 0 4.29008 0.441388 3.50441 1.22706C2.71873 2.01274 2.27734 3.07834 2.27734 4.18945V6.07647H1.42347C1.04608 6.07692 0.68428 6.22704 0.417427 6.4939C0.150573 6.76075 0.000454849 7.12255 0 7.49994V16.3152C0.000409369 16.6927 0.150508 17.0545 0.417366 17.3214C0.684225 17.5883 1.04605 17.7384 1.42347 17.7389H11.5101C11.8875 17.7384 12.2493 17.5882 12.5162 17.3213C12.783 17.0545 12.9331 16.6926 12.9336 16.3152V7.49994C12.9331 7.12255 12.783 6.76075 12.5162 6.4939C12.2493 6.22704 11.8875 6.07692 11.5101 6.07647ZM2.87891 4.18945C2.87891 3.23789 3.25692 2.32529 3.92978 1.65243C4.60264 0.979571 5.51523 0.601562 6.4668 0.601562C7.41836 0.601562 8.33096 0.979571 9.00382 1.65243C9.67668 2.32529 10.0547 3.23789 10.0547 4.18945V6.07647H9.45312V4.18945C9.45312 3.39743 9.13849 2.63785 8.57845 2.0778C8.0184 1.51776 7.25882 1.20312 6.4668 1.20312C5.67477 1.20312 4.91519 1.51776 4.35514 2.0778C3.7951 2.63785 3.48047 3.39743 3.48047 4.18945V6.07647H2.87891V4.18945ZM4.08203 6.07647V4.18945C4.08203 3.55697 4.33328 2.9504 4.78051 2.50317C5.22774 2.05594 5.83432 1.80469 6.4668 1.80469C7.09928 1.80469 7.70585 2.05594 8.15308 2.50317C8.60031 2.9504 8.85156 3.55697 8.85156 4.18945V6.07647H4.08203ZM12.332 16.3152C12.3318 16.5331 12.2451 16.7421 12.091 16.8962C11.9369 17.0503 11.728 17.137 11.5101 17.1373H1.42347C1.20555 17.137 0.996657 17.0503 0.842584 16.8962C0.688511 16.7421 0.601835 16.5331 0.601562 16.3152V7.49994C0.601835 7.28204 0.688516 7.07314 0.842595 6.91906C0.996673 6.76499 1.20557 6.6783 1.42347 6.67803H11.5101C11.728 6.6783 11.9369 6.76499 12.091 6.91906C12.2451 7.07314 12.3318 7.28204 12.332 7.49994V16.3152Z" fill="#8B8B8B"/>
<path d="M7.73733 9.58926C7.47485 9.35414 7.1523 9.19644 6.80554 9.1337C6.45879 9.07096 6.10142 9.10565 5.77321 9.2339C5.44499 9.36216 5.15878 9.57894 4.94643 9.86016C4.73407 10.1414 4.60389 10.476 4.57036 10.8268C4.54063 11.127 4.58318 11.4299 4.69444 11.7103C4.8057 11.9907 4.98244 12.2404 5.2099 12.4386C5.2633 12.4825 5.30661 12.5374 5.33689 12.5995C5.36717 12.6617 5.38371 12.7296 5.38539 12.7987V13.8856C5.38539 14.1724 5.49933 14.4475 5.70213 14.6503C5.90494 14.8531 6.18001 14.9671 6.46683 14.9671C6.75364 14.9671 7.02871 14.8531 7.23152 14.6503C7.43433 14.4475 7.54826 14.1724 7.54826 13.8856V12.8093C7.55002 12.738 7.56688 12.6678 7.59775 12.6034C7.62863 12.539 7.6728 12.4819 7.72736 12.4359C7.92904 12.2579 8.09074 12.0393 8.20181 11.7944C8.31288 11.5494 8.37079 11.2837 8.37173 11.0148C8.37267 10.7459 8.31662 10.4798 8.20727 10.2341C8.09792 9.98834 7.93776 9.76859 7.73733 9.58926ZM7.32947 11.9849C7.21081 12.0874 7.11531 12.2139 7.04932 12.3562C6.98332 12.4984 6.94834 12.6531 6.9467 12.8099V13.8867C6.9467 14.0139 6.89614 14.136 6.80615 14.226C6.71616 14.316 6.5941 14.3665 6.46683 14.3665C6.33956 14.3665 6.2175 14.316 6.1275 14.226C6.03751 14.136 5.98695 14.0139 5.98695 13.8867V12.7992C5.98501 12.6446 5.95016 12.4923 5.88473 12.3522C5.81929 12.2122 5.72477 12.0877 5.60745 11.9871C5.45172 11.8513 5.33076 11.6802 5.25466 11.4881C5.17856 11.2961 5.14954 11.0886 5.17003 10.883C5.20123 10.5871 5.33161 10.3105 5.53997 10.0981C5.74834 9.88578 6.02242 9.75017 6.31764 9.71336C6.36781 9.70783 6.41824 9.70502 6.46872 9.70493C6.78929 9.7039 7.09874 9.82235 7.33669 10.0372C7.47382 10.1599 7.58341 10.3102 7.65824 10.4783C7.73307 10.6464 7.77144 10.8285 7.77082 11.0125C7.7702 11.1965 7.73061 11.3783 7.65466 11.5459C7.57871 11.7135 7.46811 11.8631 7.33015 11.9849H7.32947Z" fill="#8B8B8B"/>
</svg>
