<svg width="18" height="18" viewBox="0 0 18 18" fill="none" xmlns="http://www.w3.org/2000/svg">
<path d="M2.47011 15.2176H15.5136C16.5711 15.2165 17.4282 14.3595 17.4294 13.3019V4.45104C17.4282 3.39355 16.5711 2.53642 15.5136 2.53528H2.47011C1.41262 2.53642 0.555498 3.39355 0.554352 4.45104V13.3019C0.555498 14.3595 1.41262 15.2165 2.47011 15.2176ZM2.47011 14.647C2.17574 14.6474 1.8894 14.5506 1.65566 14.3715L5.55648 10.3816C5.62883 10.3089 5.65647 10.2029 5.62908 10.1042C5.60169 10.0053 5.52348 9.92892 5.42413 9.90382C5.32465 9.8786 5.21943 9.90866 5.14836 9.9828L1.28397 13.9355C1.17952 13.7407 1.12488 13.523 1.125 13.3019V5.08003L7.75616 10.695C8.47011 11.3027 9.51971 11.3024 10.2331 10.6938L16.8587 5.07455V13.3019C16.859 13.5239 16.8039 13.7422 16.6987 13.9375L12.8111 9.98203C12.7005 9.87071 12.5207 9.86956 12.4086 9.97949C12.2967 10.0898 12.2946 10.2695 12.4042 10.382L16.3264 14.3727C16.0929 14.5509 15.8073 14.6474 15.5136 14.647H2.47011ZM2.47011 3.10593H15.5136C16.2096 3.10695 16.7902 3.63786 16.8531 4.33118L9.86414 10.2587C9.36316 10.6859 8.62615 10.6862 8.12492 10.2593L1.13035 4.33665C1.19022 3.64117 1.77196 3.10695 2.47011 3.10593Z" fill="#8B8B8B"/>
</svg>
