<svg width="16" height="16" viewBox="0 0 16 16" fill="none" xmlns="http://www.w3.org/2000/svg">
<g clip-path="url(#clip0)">
<path d="M14.0588 3.23956L8.04527 0.035256C7.95606 -0.0123574 7.84914 -0.0116892 7.76059 0.0369267L1.91349 3.24123C1.81759 3.29386 1.75812 3.39443 1.75812 3.50386V7.6895C1.76163 11.1302 3.80015 14.243 6.95267 15.6214L7.76427 15.9751C7.84012 16.0082 7.92649 16.0083 8.0025 15.9754L8.91702 15.5805C12.128 14.2319 14.217 11.0891 14.2173 7.60647V3.50386C14.2173 3.39326 14.1563 3.29152 14.0588 3.23956ZM13.6186 7.60647C13.6179 10.849 11.6724 13.7748 8.68262 15.0297L8.68062 15.0307L7.88422 15.3745L7.19224 15.0726C4.25774 13.7895 2.36005 10.8923 2.35671 7.6895V3.68111L7.90644 0.63953L13.6186 3.68328V7.60647Z" fill="#8B8B8B"/>
<path d="M5.69772 7.49539C5.59029 7.36959 5.40134 7.35472 5.27554 7.46214C5.14974 7.5694 5.13487 7.75851 5.2423 7.88415L6.82373 9.73606C6.92932 9.85969 7.11426 9.87656 7.24023 9.77398L10.9233 6.77751C11.0516 6.67326 11.071 6.48465 10.9666 6.35634C10.8624 6.2282 10.6737 6.20865 10.5454 6.31307L7.0892 9.12477L5.69772 7.49539Z" fill="#8B8B8B"/>
</g>
<defs>
<clipPath id="clip0">
<rect width="16" height="16" fill="white"/>
</clipPath>
</defs>
</svg>
