<svg width="512" height="512" viewBox="0 0 512 512" fill="none" xmlns="http://www.w3.org/2000/svg">
<g clip-path="url(#clip0)">
<path d="M500.758 261.621C500.758 399.902 388.66 512 250.379 512C163.961 512 87.7696 468.219 42.7735 401.629C29.6837 382.262 12.2852 343.117 5.39069 306.59C-1.93743 267.75 1.67585 231.871 2.53522 225.848C19.8946 104.512 124.242 11.2422 250.379 11.2422C388.66 11.2422 500.758 123.34 500.758 261.621Z" fill="#E5E5E5"/>
<path d="M476.082 35.918C523.973 83.8125 523.973 161.461 476.082 209.352C428.188 257.242 350.543 257.242 302.648 209.352C254.758 161.461 254.758 83.8125 302.648 35.918C350.543 -11.9727 428.188 -11.9727 476.082 35.918V35.918Z" fill="#9E079E"/>
<path d="M476.082 35.9182C519.844 79.6799 523.61 148.285 487.391 196.332C439.344 232.551 370.742 228.785 326.977 185.024C283.215 141.258 279.449 72.6565 315.668 24.6096C363.715 -11.6091 432.317 -7.84351 476.082 35.9182V35.9182Z" fill="#BC09BC"/>
<path d="M506.719 68.8906L407.012 168.598C403.492 172.117 398.875 173.879 394.266 173.879C389.652 173.879 385.039 172.121 381.52 168.598L331.879 118.961C324.84 111.918 324.84 100.504 331.879 93.4648C338.918 86.4258 350.332 86.4258 357.371 93.4648L394.266 130.359L481.23 43.3984C488.27 36.3594 499.68 36.3594 506.723 43.3984C513.762 50.4375 513.762 61.8516 506.719 68.8906Z" fill="#FFE49F"/>
<path d="M506.719 43.3984C513.762 50.4375 513.762 61.8477 506.723 68.8867L420.93 154.676C417.41 158.195 412.797 159.957 408.183 159.957C403.57 159.957 398.957 158.199 395.437 154.676L345.797 105.035C341.328 100.566 339.707 94.3359 340.91 88.5781C346.668 87.375 352.898 88.9961 357.367 93.4648L394.262 130.359L481.226 43.3945C488.266 36.3555 499.68 36.3555 506.719 43.3984V43.3984Z" fill="#FFF5F5"/>
<path d="M407.156 253.078C406.266 253.555 405.715 254.48 405.715 255.488C405.715 256.496 406.266 257.426 407.156 257.898C413.594 261.34 417.98 268.117 417.98 275.93V286.148C417.98 293.957 413.594 300.738 407.156 304.176C406.266 304.652 405.715 305.578 405.715 306.586C405.715 307.594 406.266 308.523 407.156 308.996C413.594 312.437 417.98 319.215 417.98 327.027V337.246C417.98 345.055 413.594 351.836 407.156 355.273C406.266 355.75 405.715 356.676 405.715 357.684C405.715 358.691 406.266 359.621 407.156 360.094C413.594 363.535 417.98 370.312 417.98 378.125V388.344C417.98 399.633 408.828 408.781 397.539 408.781H288.395C273.012 408.781 258.047 403.758 245.781 394.477C233.512 385.191 218.551 380.168 203.164 380.168H119.57V247.312H192.086C206.691 247.312 220.184 239.523 227.488 226.875L262.062 166.988C264.754 162.324 266.168 157.039 266.168 151.656V117.523C266.168 109.059 273.031 102.195 281.5 102.195C301.254 102.195 317.266 118.211 317.266 137.965V157.227C317.266 168.039 314.406 178.66 308.98 188.008L302.141 199.785C300.957 201.832 302.43 204.391 304.793 204.391H397.539C408.828 204.391 417.98 213.543 417.98 224.832V235.051C417.98 242.859 413.594 249.641 407.156 253.078V253.078Z" fill="#FFDFCF"/>
<path d="M285.125 106.285V126.723C285.125 132.367 280.551 136.941 274.906 136.941H266.172V117.523C266.172 109.059 273.035 102.195 281.5 102.195C282.453 102.195 283.395 102.242 284.328 102.316C284.84 103.539 285.125 104.879 285.125 106.285Z" fill="#FFEEE6"/>
<path d="M336.223 245.27C336.223 239.625 340.801 235.051 346.441 235.051H417.98C417.98 242.859 413.594 249.641 407.156 253.078C406.266 253.555 405.715 254.48 405.715 255.488H346.441C340.801 255.488 336.223 250.914 336.223 245.27V245.27ZM397.539 376.082H288.395C273.012 376.082 258.047 371.055 245.781 361.773C233.512 352.488 218.551 347.465 203.164 347.465H119.57V380.168H203.164C218.551 380.168 233.512 385.191 245.781 394.477C258.047 403.758 273.012 408.781 288.395 408.781H397.539C408.828 408.781 417.98 399.633 417.98 388.344V378.125C417.98 373.973 416.719 370.125 414.59 366.906C410.93 372.43 404.664 376.082 397.539 376.082ZM336.223 347.465C336.223 353.109 340.801 357.684 346.441 357.684H405.715C405.715 356.676 406.266 355.75 407.156 355.273C413.594 351.836 417.98 345.055 417.98 337.246H346.441C340.801 337.246 336.223 341.82 336.223 347.465V347.465ZM336.223 296.367C336.223 302.012 340.801 306.586 346.441 306.586H405.715C405.715 305.578 406.266 304.652 407.156 304.176C413.594 300.738 417.98 293.957 417.98 286.148H346.441C340.801 286.148 336.223 290.723 336.223 296.367V296.367Z" fill="#FFC9C0"/>
<path d="M160.445 229.941V397.543C160.445 406.008 153.582 412.871 145.117 412.871H94.0195C86.9727 412.871 81.0508 408.105 79.2578 401.629H42.7734C15.7695 361.664 0 313.484 0 261.621C0 249.477 0.882812 237.535 2.55469 225.852H79.2578C81.0508 219.375 86.9727 214.609 94.0195 214.609H145.117C153.582 214.609 160.445 221.473 160.445 229.941V229.941Z" fill="#9E079E"/>
<path d="M0 261.621C0 249.477 0.863281 237.535 2.53516 225.852H48.0312V351.238C48.0312 359.703 41.168 366.566 32.7031 366.566H22.9883C8.23047 334.645 0 299.098 0 261.621ZM78.6914 229.941V362.793C78.6914 371.262 85.5547 378.125 94.0195 378.125H145.117C153.582 378.125 160.445 371.262 160.445 362.793V229.941C160.445 221.473 153.582 214.609 145.117 214.609H94.0195C85.5547 214.609 78.6914 221.473 78.6914 229.941V229.941Z" fill="#BC09BC"/>
</g>
<defs>
<clipPath id="clip0">
<rect width="512" height="512" fill="white"/>
</clipPath>
</defs>
</svg>
