<svg width="44" height="44" viewBox="0 0 44 44" fill="none" xmlns="http://www.w3.org/2000/svg">
<g clip-path="url(#clip0)">
<path d="M16.2545 22.7828L13.884 20.4123C12.9911 19.5195 12.9911 18.0657 13.884 17.171L25.555 5.5L22.4016 2.34667C22.0093 1.95433 21.8901 1.36217 22.1028 0.848833C22.3155 0.3355 22.8196 0 23.3751 0H35.2918C36.0508 0 36.6668 0.616 36.6668 1.375V13.2917C36.6668 13.8472 36.3313 14.3495 35.818 14.5622C35.3046 14.7748 34.7143 14.6593 34.3201 14.2633L31.1668 11.1118L19.4958 22.7828C18.6048 23.672 17.1528 23.6793 16.2545 22.7828Z" fill="#77CB6A"/>
<path d="M20.6252 44H8.7085C7.9495 44 7.3335 43.384 7.3335 42.625V30.7083C7.3335 30.1528 7.669 29.6505 8.18233 29.4378C8.69566 29.2252 9.28783 29.3425 9.68016 29.7367L12.8335 32.8882L24.5045 21.2172C25.3973 20.3243 26.8512 20.3243 27.7458 21.2172L30.1163 23.5877C31.0092 24.4805 31.0092 25.9343 30.1163 26.829L18.4453 38.5L21.5987 41.6533C21.991 42.0457 22.1102 42.6379 21.8975 43.1512C21.6848 43.6645 21.1807 44 20.6252 44Z" fill="#77CB6A"/>
</g>
<defs>
<clipPath id="clip0">
<rect width="44" height="44" fill="white"/>
</clipPath>
</defs>
</svg>
