<svg width="23" height="23" viewBox="0 0 23 23" fill="none" xmlns="http://www.w3.org/2000/svg">
<path d="M11.6191 5.44434C8.3542 5.44434 5.70947 8.07082 5.70947 11.3175C5.70947 12.5942 6.12898 13.798 6.84032 14.7647L6.0925 16.9535L8.37244 16.2239C9.30265 16.844 10.4335 17.1906 11.6373 17.1906C14.9022 17.1906 17.5651 14.5641 17.5651 11.3175C17.5469 8.07082 14.8839 5.44434 11.6191 5.44434ZM15.0846 13.7433C14.9387 14.1446 14.2273 14.5276 13.9172 14.5641C13.6072 14.6006 13.6072 14.8194 11.8379 14.1446C10.087 13.4515 8.97434 11.6822 8.88315 11.5546C8.79195 11.4451 8.1718 10.6244 8.1718 9.78534C8.1718 8.94632 8.60955 8.52681 8.77371 8.36265C8.93786 8.1985 9.12026 8.14378 9.2297 8.14378C9.33913 8.14378 9.46681 8.16202 9.55801 8.16202C9.66744 8.16202 9.79512 8.1073 9.94104 8.45385C10.087 8.8004 10.4335 9.63942 10.47 9.73062C10.5065 9.82181 10.5429 9.91301 10.4882 10.0224C10.4335 10.1319 10.397 10.2048 10.3241 10.3143C10.2329 10.4055 10.1417 10.5332 10.0687 10.6061C9.97752 10.6973 9.88632 10.7885 9.99575 10.9527C10.1052 11.1168 10.4517 11.6822 10.9624 12.1382C11.6191 12.7219 12.1845 12.9043 12.3486 12.9955C12.5128 13.0867 12.6222 13.0684 12.7134 12.959C12.8229 12.8496 13.1512 12.4665 13.2606 12.2841C13.3701 12.12 13.4977 12.1382 13.6437 12.1929C13.8078 12.2477 14.6468 12.6672 14.8292 12.7584C14.9934 12.8496 15.1211 12.8861 15.1575 12.959C15.2123 12.9955 15.2122 13.342 15.0846 13.7433Z" fill="white"/>
<path d="M17.2181 0.0102539H5.76368C2.59001 0.0102539 0 2.60026 0 5.77393V17.2466C0 20.402 2.59001 22.992 5.76368 22.992H17.2363C20.41 22.992 23 20.402 23 17.2283V5.77393C22.9818 2.60026 20.3918 0.0102539 17.2181 0.0102539ZM11.6186 18.3045C10.3783 18.3045 9.22918 17.9944 8.20777 17.429L4.30452 18.6693L5.58128 14.9302C4.9429 13.8723 4.57811 12.632 4.57811 11.3187C4.57811 7.45197 7.73354 4.33301 11.6186 4.33301C15.5036 4.33301 18.659 7.45197 18.659 11.3187C18.659 15.1855 15.5036 18.3045 11.6186 18.3045Z" fill="white"/>
</svg>
